/* XPM */
static char *_e2d982a69884110854a20e4fb0cca8c[] = {
/* columns rows colors chars-per-pixel */
"64 64 256 2 ",
"   c #010101",
".  c #0B0A06",
"X  c #0C0809",
"o  c #110A08",
"O  c #13120C",
"+  c #19100D",
"@  c #1D1814",
"#  c #241B14",
"$  c #261A16",
"%  c #2C1A14",
"&  c #292114",
"*  c #2C231B",
"=  c #26221C",
"-  c #34291C",
";  c #3A2C1D",
":  c #37251C",
">  c #2C2924",
",  c #332B24",
"<  c #3A2C24",
"1  c #372C29",
"2  c #3D3324",
"3  c #3B332C",
"4  c #373229",
"5  c #3D3834",
"6  c #462C27",
"7  c #423425",
"8  c #42352B",
"9  c #4B352C",
"0  c #433A2C",
"q  c #4B3D2C",
"w  c #493826",
"e  c #513827",
"r  c #423632",
"t  c #443B34",
"y  c #4A3E34",
"u  c #4A3F3A",
"i  c #463A38",
"p  c #533E33",
"a  c #5C3A33",
"s  c #553328",
"d  c #4C402E",
"f  c #53432D",
"g  c #58472D",
"h  c #4C4232",
"j  c #4C433A",
"k  c #494438",
"l  c #534334",
"z  c #534932",
"x  c #5C4C35",
"c  c #52453C",
"v  c #5A4639",
"b  c #544A3C",
"n  c #5B4C3C",
"m  c #5A4634",
"M  c #5B513F",
"N  c #634E3A",
"B  c #664638",
"V  c #64533B",
"C  c #6C563D",
"Z  c #78563C",
"A  c #734838",
"S  c #4D4441",
"D  c #4D4942",
"F  c #554B42",
"G  c #5B4C43",
"H  c #554B48",
"J  c #5C5242",
"K  c #5C534B",
"L  c #5B5852",
"P  c #684A43",
"I  c #744C43",
"U  c #7B4B45",
"Y  c #635444",
"T  c #645946",
"R  c #6C5B43",
"E  c #64554B",
"W  c #655B4C",
"Q  c #6B5C4B",
"!  c #695549",
"~  c #725D44",
"^  c #7B5A44",
"/  c #775848",
"(  c #665C53",
")  c #6B5D53",
"_  c #685B57",
"`  c #705F55",
"'  c #736245",
"]  c #74624A",
"[  c #7A654B",
"{  c #7C6A4D",
"}  c #7A6446",
"|  c #6C6154",
" . c #6D635A",
".. c #6B665C",
"X. c #736252",
"o. c #7C6C53",
"O. c #73645A",
"+. c #79665A",
"@. c #756B5C",
"#. c #7B6C5C",
"$. c #766855",
"%. c #7E715B",
"&. c #68604D",
"*. c #756B62",
"=. c #796865",
"-. c #7B726B",
";. c #7D7871",
":. c #6C6260",
">. c #84534B",
",. c #8B554A",
"<. c #885849",
"1. c #8B5952",
"2. c #935C53",
"3. c #8C534A",
"4. c #836C4C",
"5. c #83644A",
"6. c #89724C",
"7. c #826D52",
"8. c #896A56",
"9. c #956959",
"0. c #857254",
"q. c #8C7454",
"w. c #84745C",
"e. c #8A755D",
"r. c #8C7A5C",
"t. c #887957",
"y. c #937C5C",
"u. c #967958",
"i. c #A1695F",
"p. c #836E64",
"a. c #9E6D62",
"s. c #8B7C63",
"d. c #857C6B",
"f. c #8D7B6A",
"g. c #857566",
"h. c #917D63",
"j. c #957A67",
"k. c #857976",
"l. c #A37364",
"z. c #9B855D",
"x. c #9B895D",
"c. c #96865C",
"v. c #A28A5D",
"b. c #A8935C",
"n. c #8F806A",
"m. c #928266",
"M. c #9B8364",
"N. c #9C8C61",
"B. c #95846A",
"V. c #9A856B",
"C. c #9B8B6C",
"Z. c #978861",
"A. c #9F9066",
"S. c #8A8274",
"D. c #8A847C",
"F. c #9C8B72",
"G. c #9D8D7A",
"H. c #93897A",
"J. c #9D9179",
"K. c #A1856C",
"L. c #A38B6C",
"P. c #A88968",
"I. c #A49166",
"U. c #A3926B",
"Y. c #AA9669",
"T. c #A48B72",
"R. c #A48E77",
"E. c #A49374",
"W. c #AB9A75",
"Q. c #A5947A",
"!. c #AB967B",
"~. c #AB9B7B",
"^. c #A8977B",
"/. c #B39D74",
"(. c #B49878",
"). c #B08F70",
"_. c #B3A37C",
"`. c #B9A778",
"'. c #B9A36C",
"]. c #8E8784",
"[. c #958B84",
"{. c #978C89",
"}. c #999389",
"|. c #9E9B96",
" X c #AC9B83",
".X c #A79788",
"XX c #B29E85",
"oX c #B29E8D",
"OX c #A59C95",
"+X c #9FA09A",
"@X c #ACA28C",
"#X c #B4A383",
"$X c #B4A38B",
"%X c #BCAB8B",
"&X c #BCA982",
"*X c #AAA69B",
"=X c #A9A698",
"-X c #B5A394",
";X c #BCAC94",
":X c #B2AC9B",
">X c #B7A996",
",X c #BFB189",
"<X c #ADABA3",
"1X c #B3ADA3",
"2X c #BBADA2",
"3X c #B0AFAB",
"4X c #BCB2A2",
"5X c #BBB4AB",
"6X c #BCBAB4",
"7X c #B7B5B1",
"8X c #C2A98B",
"9X c #C1AF98",
"0X c #C4B492",
"qX c #CABA95",
"wX c #CABB9C",
"eX c #C5B599",
"rX c #C9B691",
"tX c #C4B4A4",
"yX c #C9BBA8",
"uX c #C7BCB6",
"iX c #D0BEB2",
"pX c #CDB8A2",
"aX c #CCC19F",
"sX c #D4C29B",
"dX c #CDC2A5",
"fX c #CEC6AC",
"gX c #D4C6A8",
"hX c #C9C4BA",
"jX c #D2C3B3",
"kX c #D8CCB8",
"lX c #DBD3B9",
"zX c #E8D9B8",
"xX c #CDCCC6",
"cX c #D4CEC5",
"vX c #D3D2CD",
"bX c #DCD6C3",
"nX c #DEDEDA",
"mX c #DBD9D4",
"MX c #E3D9C7",
"NX c #E0DED9",
"BX c #EAE2C4",
"VX c #E8E4D8",
"CX c #F3EDD8",
"ZX c #F6F1D4",
"AX c #E6E4E1",
"SX c #ECEAE4",
"DX c #EDEDEB",
"FX c #F1EFE7",
"GX c #F2F1EC",
"HX c #FBFBE9",
"JX c #F4F4F2",
"KX c #F8F6F3",
"LX c #FAFBF5",
"PX c #FEFEFE",
"IX c #F7F8F3",
"UX c #EFF0EB",
/* pixels */
"PXPXPXPXPXPXPXLXPXPXPXPXPXPXPXPXPXPXPXPXPXPXPXPXPXPXPXPXPXPXPXPXPXPXPXPXPXPXPXPXPXPXPXPXPXPXPXPXPXSXH.&.T M b S.PXPXPXPXPXPXPXPX",
"PXPXPXPXPXPXPXPXPXPXPXPXLXPXPXPXPXPXPXPXPXPXPXPXPXPXPXPXPXPXPXPXPXPXPXPXPXPXPXPXPXPXPXPXPXPXPXPXUXD.T %.%.W b F hXPXPXPXPXPXPXPX",
"PXPXPXPXPXPXPXGX6X<XcXIXPXPXPXPXPXPXPXPXPXPXPXPXPXPXPXPXPXPXPXPXPXPXPXPXPXPXPXPXPXPXPXPXPXPXPXLXH.C w.C.m.&.J k OXPXPXPXPXPXPXPX",
"PXPXPXPXPXPXGXD.c y c *.5XIXPXPXPXPXPXPXPXPXPXPXPXPXPXPXPXPXPXPXPXPXPXPXPXPXPXPXPXPXPXPXPXPXPX:XT w.f.C.C.$.J z 1XPXLXPXPXPXPXPX",
"PXPXPXPXPXPX7Xb c k u t 0 k.AXPXPXPXPXPXPXPXPXPXPXPXPXPXPXPXPXPXPXPXPXPXPXPXPXPXPXPXPXPXPXPXhXT 0.n.m.m.m.&.J h <XPXPXPXPXPXPXPX",
"PXPXPXPXPXPX1Xz b n b k u 3 K vXPXPXPXPXPXPXPXPXPXPXPXPXPXPXPXPXPXPXPXPXPXPXPXPXPXPXPXPXPXSX%.] m.B.m.m.r.Q n F xXPXLXPXPXPXPXPX",
"PXPXPXPXPXPXxXM x { t.] b i 4 S 6XPXPXPXPXPXPXPXPXPXPXPXPXPXPXPXPXPXPXPXPXPXPXPXPXPXPXPXPXOX~ s.m.m.n.m.%.R l F nXPXLXPXPXPXPXPX",
"PXPXPXPXPXPXSXO.x 4.M.V.e.J 0 , 1 ].DXPXPXPXPXPXPXPXPXPXPXPXPXPXPXPXPXPXPXPXPXPXPXPXLXPXvXQ 7.B.j.e.m.E.{ n h ..JXPXPXPXPXPXPXPX",
"PXPXPXPXPXLXPXOXz [ c.m.m.r.Y 0 3 > H 7XPXPXPXLXPXPXPXPXPXPXPXPXPXIXIXIXPXPXPXPXPXPXPXPX|.R r.s.e.w.C.E.] n r ;.LXPXPXLXPXPXPXPX",
"PXPXPXPXPXPXPXnXT C m.m.e.j.h.] 0 , , > L <XDXPXIXPXPXPXIXJXDXJXSXvXhXvXnXDXJXJXPXIXPXAX*.[ F.r.w.w.^.m.R n 8 ;.LXPXPXPXPXPXPXPX",
"PXPXPXPXPXPXLXPX=Xx t.F.g.+.s.^.@.y 1 , > > H 6XPXPXPXPXJXnX6XxX3Xk.:.;.+XhXxXnXPXLXPXxX! m.J.g.w.w.XXw.! b 3 {.PXLXPXPXPXPXPXPX",
"PXPXPXPXPXPXLXPXIXd.' ~.T.#.| g.oXg.u 3 1 1 > > ].IXPXIXJXvX}.}.].5 , i :.}.+XAXPXPXPX<Xo. XV.w.#.f. X+.Y c 3 |.PXPXPXPXPXPXPXPX",
"PXPXPXPXPXPXPXLXPXmX@.r.XXf.W H ) g.d.E i , , , = |.PXDXUXxX;.D i @ O @ 5 :.=XAXUXPXIXg.V.^.m.w.X.R.J.` Y l 3 6XPXPXPXPXPXPXPXPX",
"PXPXPXPXPXPXPXPXPXPXNX%.r.E.w.E S t K W K D 5 , > 5 nXDXAXvXH = 4 O O O = i 3XnXDXPXvXw.J.H.g.Q Q XXf.! n h D nXPXIXPXPXPXKXPXPX",
"PXPXPXPXPXPXPXPXPXPXPXAXH.[ j.#.K H 5 5 k j 5 > > @ ;.PXxXhXF + @ . O . O > <XvXPXIXG.#.f.O.` G X.^.w.! l 0 L DXPXPXPXPXPXPXPXPX",
"PXPXPXPXPXPXPXPXPXPXLXPXLX4X%.B.@.H D t i 5 i 4 = = 5 AXIX|.t O O O . O = 5 d.<XIX*XQ ] ] ! G n w.^.+.N c 0 [.PXPXPXPXPXPXPXPXPX",
"PXPXPXPXPXPXPXPXPXPXPXPXPXPXxXo.w.W D k 5 5 i 5 , - 0 H.4XJ.z & O . # l f 2 - y Q R X.T c F c Q F.s.Q n h j vXPXPXPXPXPXPXPXPXPX",
"PXPXPXPXPXPXPXPXPXPXPXPXPXLXPXuX' r.%.G i r 3 i z w 2 - - q d V f & R N & - < : - : z n t 3 8 Q ] Y n c 0 H.PXPXPXPXPXPXPXPXPXPX",
"PXPXPXPXPXPXLXPXPXPXPXPXPXPXPXPX@X~ x.w.! y c l - ; 7 7 2 - # 7 ~ V [ x x ] { [ ] x w e l , i K k 3 d 2  .UXPXPXPXPXPXPXPXPXPXPX",
"PXPXPXPXPXPXPXPXPXPXPXPXPXPXPXLXLXH.V m.e.~ q 7 V { o.o.{ { V x } [ 7.e.7.[ ' ] ] [ ~ q 7 2 S u > , - j nXPXLXPXPXPXPXPXPXPXPXPX",
"PXPXPXPXPXPXPXPXPXPXPXPXPXPXPXPXPXJXS.' r.} f ' t.0.{ %.7.0.0.{ 0.r.y.q.{ 4.[ [ [ ] ' V 7 7 0 > = * 3 hXPXLXPXPXPXPXPXPXPXPXPXPX",
"PXPXPXPXPXPXPXPXPXPXPXPXPXPXPXPXPXPXUX%.} 7.' 0.{ ] } { { o.0.t.y.r.q.q.t.{ [ [ { ] ~ T x 2 = # # - *XPXPXPXPXPXPXPXPXPXPXPXPXPX",
"PXPXPXPXPXPXPXPXPXPXPXPXPXPXPXPXPXPXPXSXC.u.7.7.o.[ { [ ' ' { 0.t.y.q.6.4.} ' R ' R R C C 0 $ # * *XPXLXPXPXPXPXPXPXPXPXPXPXPXPX",
"PXPXPXPXPXPXPXPXPXPXPXPXPXPXPXPXPXPXPXPXfXI.L.x q 0 h ] { ] ' [ 0.u.q.{ R T R R R C N M x d & 0 1XPXPXPXPXPXPXPXPXPXPXPXPXPXPXPX",
"PXPXPXPXPXPXPXLXPXPXPXPXPXPXPXPXPXPXPXPXgX`.w.@.5X:Xn.4 l %.[ } 6.u.0.] R ] R m n g Y Y n q @.VXPXPXPXPXPXPXPXPXPXPXPXPXPXPXPXPX",
"PXPXPXPXPXPXPXPXPXPXPXPXPXPXPXPXPXPXPXPXtX(.@XLXH.y e.@.@ n j.m.r.s.{ ~ Q q l @.Y 8 8 Y l  .JXPXLXPXPXPXPXPXPXPXPXPXPXPXPXPXPXPX",
"PXPXPXPXPXPXPXLXPXPXPXPXPXPXPXPXPXPXPXJX0X#XlXVX% o A ! =..XyXtX2XtX>Xf.h W bX>XT.k.H r z =XPXPXPXPXPXPXPXPXPXPXPXPXPXPXPXPXPXPX",
"PXPXPXPXPXPXPXPXPXPXPXPXPXPXPXPXPXPXPXFX#XsXwXpXB.! j.2XbXcXkXjXiXyXiXhX*XkXS.  6 g.].E G vXPXPXPXPXPXPXPXPXPXPXPXPXPXPXPXPXPXPX",
"PXPXPXPXPXPXPXPXPXPXPXPXPXPXPXPXPXFXVXkX0XpXpX%X8XpXkXkXjXjXiXiXiXyXuX2X5XuX*.$ B +.k. . .GXPXPXPXPXPXPXPXPXPXPXPXPXPXPXPXPXPXPX",
"PXPXPXPXPXPXPXPXPXPXPXPXPXPXPXFXlXwX;X$X$X X X%XyXiXtX;X9XtXtXtX2X2X2X1XOX*XOX_ (  .#.] =XPXLXPXPXPXPXPXPXPXPXPXPXPXPXPXPXPXPXPX",
"PXPXPXPXPXPXPXPXPXPXLXPXLXLXVXyX$X~.^.Q.E.F. X2X2X;XoX X$X$X8X-XoXoXoX.X{.[.{.{.g.p.f.0.@XLXPXPXPXPXPXPXPXPXPXPXPXPXPXPXPXPXPXPX",
"PXPXPXPXPXPXPXPXPXPXPXPXPXMX0X#XW.^.^.^.U.^.4X1X>Xj.8.!.XX$XoX X!.[.k.j.g.p.f.[.D. .O.@.| k.uXKXPXPXPXPXPXPXPXPXPXPXPXPXPXPXPXPX",
"PXPXPXPXPXPXPXPXPXPXPXLXMX0X_.W.W.W.Q.U.R.>XtX>X-X8.5.R.(.W.!.).j.j.p.+.$.X.G E {.k._ _ _ P T :XKXPXPXPXPXPXPXPXPXPXPXPXPXPXPXPX",
"PXPXPXPXPXPXIXPXPXLXPXVXaXW.~.^.E.E.Q.T.-XiXtX>XoX.XR.T.K.K.K.y.8.7.X.! ! ! a G k.{.:._ ( E Y W :XLXLXPXPXPXPXPXPXPXPXPXPXPXPXPX",
"PXPXPXPXPXPXLXPXPXLXUXfX_.A.J.U.E.E.T.9XlXkXiX2XoX.XR.K.M.y.6.4.5.' Y N ! ` :.=.=.{.k.:. .( J J &.5XPXPXPXPXPXPXPXPXPXPXPXPXPXPX",
"PXPXPXPXPXPXPXPXPXLXMX0XW.E.U.A.N.C.$XMXcXjXtX>XXXR.K.P.j.q.4.4.} R Y Y ! ` ` =.k.].].:. .! ! Y Y @.mXPXLXPXPXPXPXPXPXPXPXPXPXPX",
"PXPXPXPXPXPXPXPXPXKXkX&XU.A.N.c.A._.yXjXtX2XoX X!.R.M.z.u.6.4.6.} R V Y / ! ` =.-.k.{.=.( W ! W X.W }.IXLXPXPXPXPXPXPXPXPXPXPXPX",
"PXPXPXPXPXPXPXPXPXSXsX&XU.A.c.c.U.%XiXtX-XoX X!.Q.T.M.y.u.6.4.} } C N N P E _ =.k.k.{.k.W Y J T X.W *.bXPXPXPXPXPXPXPXPXPXPXPXPX",
"PXPXPXPXPXPXPXPXPXAXqX`.I.x.c.x.I.%XeXoX X!.E.R.T.j.z.u.6.6.6.} ~ V N x v v F E =.p.].{.*.n M Y W | | <XPXPXPXPXPXPXPXPXPXPXPXPX",
"PXPXPXPXPXPXLXPXPXCXqX`.A.x.c.x.Y.%X$XN j.P.).P.K.z.v.y.u.6.4.4.} V x v v c l p E :.p.k.-.n b J &.| | }.IXPXPXPXPXPXPXPXPXPXPXPX",
"PXPXPXPXPXPXPXPXPXVXqX_.A.c.c.x.L.%X%X9 / 5.^ 5.5.5.Z Z Z Z Z C N m p p v p p c F P  .=.O.J c b T | | [.JXPXLXPXPXPXPXPXPXPXPXPX",
"PXPXPXPXPXPXPXPXPXFXqX`.A.c.c.N.I.~.eXK.$ J } % 7 x x @.V e ; & ; : : ; 8 9 p p p G c G J b f b T &.( [.LXPXPXPXPXPXPXPXPXPXPXPX",
"PXPXPXPXPXPXPXLXLXLXgX`.Y.N.N.I.I.W.0X).$ 4 $.$ uXdXnXSXVX@Xd @X Xd.E - * : < 0 p y * l c d z b J L W 1XPXPXPXPXPXPXPXPXPXPXPXPX",
"PXPXPXPXPXPXPXPXPXPXlX&XW.x.A.N.I.^.0X).9     5 HXVXLXLXHXkXn.ZXBXfX*X*.h c o 0 # + , F y 3 h j F H W cXPXPXPXPXPXPXPXPXPXPXPXPX",
"PXPXPXPXPXPXPXPXPXPXSX,X/.A.c.N.I.E.8X(.v     > dXMXLXHXHXdXJ.BXlX5X=XH.....  @   - G j 8 0 h k F b d.IXPXPXPXPXPXPXPXPXPXPXPXPX",
"PXPXPXPXPXPXPXPXPXPXPXgX'.U.N.x.U.P.%X#X/ .   X 8 L.lXzXzXXXR.eX;X%X:X}.%.0     O p G y 8 3 0 h k M hXPXPXPXPXPXPXPXPXPXPXPXPXPX",
"PXPXPXPXPXPXPXPXPXLXPXCX&XY.x.x.x.U.$X8X^ +   = Z.P.i.l.i.Z 2.9.~ f k 4 @ X     * G F r r 2 3 3 4 S.IXPXPXPXPXPXPXPXPXPXPXPXPXPX",
"PXPXPXPXPXPXPXPXPXPXPXPXfXY.I.N.z.Y.XX8X8.+   k sXj.l.i.1.U a.a.<.a q 0 X   O # r G y 8 8 2 2 2 &.NXPXPXPXPXPXPXPXPXPXPXPXPXPXPX",
"PXPXPXPXPXPXPXPXPXPXPXPXSX_.b.v.v.v.W.#Xy.$   $ ;X$X9.,.1.U i.2.3.B /.t..   p A c b h 0 < 4 < z kXPXLXPXPXPXPXPXPXPXPXPXPXPXPXPX",
"PXPXPXPXPXPXPXPXPXPXPXPXPXkXY.I.z.z.Y.(.l.*   @ ,X).<.3.U >.1.>.I q.W.>   @ U B J b 3 4 < < 0 :XPXLXPXPXPXPXPXPXPXPXPXPXPXPXPXPX",
"PXPXPXPXPXPXPXPXPXPXPXPXLXPXdXb.N.c.I.(.T.6   $ <.,.,.,.>.>.2.>.B I e.o   6 U m J y < < 4 2 *XPXPXPXPXPXPXPXPXPXPXPXPXPXPXPXPXPX",
"PXPXPXPXPXPXPXPXPXPXPXPXPXPXIX&Xb.x.v.(.(.B     Z 9.<.,.3.3.1.>.I 6 %   O U I E v 3 4 - 0 OXLXPXPXPXPXPXPXPXPXPXPXPXPXPXPXPXLXPX",
"PXPXPXPXPXPXPXPXPXPXPXPXPXPXPXSX/.I.z./.(.8.o   / $XB >.3.,.2.I f..Xo   6 >.N E t , < 0 =XPXPXLXPXPXPXPXPXPXPXPXPXPXPXPXPXPXPXPX",
"PXPXPXPXPXPXPXLXPXPXPXPXPXPXPXPXMXY.v./.(.).6   ( CXR 6 >.2.3.I iXG.    6 / N n 2 ; z 4XPXPXPXPXPXPXPXPXPXPXPXPXPXPXPXPXPXPXPXPX",
"PXPXPXPXPXPXPXPXPXPXPXPXPXPXPXLXLX0Xb.(.8XP.q.  k HXBX@X8.8./ oXdXK   . , p Y 0 ; d hXPXPXPXPXPXPXPXPXPXPXPXPXPXPXPXPXPXPXPXPXPX",
"PXPXPXPXPXPXPXPXPXPXPXPXPXPXPXPXPXrXb.(.sXP.).e $ eXZXHXwXwX%X.Xs.#   * 6 l N 7 q h hXPXLXPXPXPXPXPXPXPXPXPXPXPXPXPXPXPXPXPXPXPX",
"PXPXPXPXPXPXPXPXPXPXPXPXPXPXPXPXPXlXY.Y.sX).P.u.7 f fXzXf.wXJ.w.2 X $ 1 9 ! x q d w x vXPXPXPXPXPXPXPXPXPXPXPXPXPXPXPXPXPXPXPXPX",
"PXPXPXPXPXPXPXPXPXPXPXPXPXPXPXLXPXSX`.b.gXsXi.P.u.s C N e l Y 7 + : < 8 G / g f f d 2 b 7XKXLXLXLXPXPXPXPXPXPXPXPXPXPXPXPXPXPXPX",
"PXPXPXPXPXPXPXPXPXPXPXPXPXPXPXPXPXLXsXb.,XzXP.q.l.l.<./ Z a B B B 9 9 G X.C f q d 0 2 7 G ;.vXPXPXPXPXPXPXPXPXPXPXPXPXPXPXPXPXPX",
"PXPXPXPXPXPXPXPXPXPXPXPXPXPXPXPXPXPXlXY.'.BXsXy.} 5.^ ^ ^ ^ N m 9 v ! @.| V f w d 0 2 7 j j ;.6XLXPXPXPXPXPXPXPXPXPXPXPXPXPXPXPX",
"PXPXPXPXPXPXPXPXPXPXPXPXPXPXPXPXPXPXVX`.'.gXBX,Xz.4.~ N m f p l Y ] $.$.x x g 0 7 7 2 7 y F u j {.DXPXPXPXPXPXPXPXPXPXPXPXPXPXPX",
"PXPXPXPXPXPXPXPXPXPXPXPXPXPXPXPXLXPXPXaX'.,XBXzX8XL.j.e.0.{ [ $.@.@.O.M z x g w 2 2 2 2 r c F r 1 -.xXPXPXPXPXPXPXPXPXPXPXPXPXPX",
"PXPXPXPXPXPXPXPXPXPXPXPXPXPXPXPXPXLXPXVX`.&XaXBXBXdX;X#XQ.n.d.%.g.d.%.T x z z 0 2 ; 2 3 8 u S S i 1 L +XAXPXPXPXPXPXPXPXPXPXPXPX",
"PXPXPXPXPXPXPXPXPXPXPXPXPXPXPXPXPXPXLXHXrX,XrXkXCXZXMXfX;X.XS.G.J.E.Z.o.V V z d 2 2 2 q y u u F D u 3 4 K }.mXJXPXPXPXPXPXPXPXPX"
};
