/* XPM */
static char *_517292737353[] = {
/* columns rows colors chars-per-pixel */
"64 64 89 1 ",
"  c #504436",
". c #51473B",
"X c #5B4F41",
"o c #5B5245",
"O c #5D5548",
"+ c #615748",
"@ c #635B4D",
"# c #685C4E",
"$ c #665E51",
"% c #685F51",
"& c #6D604F",
"* c #6C6354",
"= c #6F6559",
"- c #706656",
"; c #746957",
": c #71675B",
"> c #756B5B",
", c #786D5C",
"< c #776D61",
"1 c #796D60",
"2 c #7C7264",
"3 c #7D7369",
"4 c #827564",
"5 c #817867",
"6 c #85776A",
"7 c #857B6B",
"8 c #8A7E6C",
"9 c #887E72",
"0 c #8D816F",
"q c #8E8373",
"w c #928574",
"e c #958977",
"r c #928778",
"t c #958979",
"y c #9A8D7C",
"u c #9D917E",
"i c #A1927F",
"p c #9E9282",
"a c #A39584",
"s c #A59986",
"d c #AA9A86",
"f c #A69989",
"g c #AB9D8B",
"h c #B09F8D",
"j c #ADA08E",
"k c #B1A28E",
"l c #AEA291",
"z c #B3A593",
"x c #B8A794",
"c c #B7A895",
"v c #B9AA96",
"b c #B6AA99",
"n c #BCAD9B",
"m c #BEB19D",
"M c #BEB2A1",
"N c #C0AF9C",
"B c #C1B29E",
"V c #C4B5A2",
"C c #C8B7A4",
"Z c #C6B8A5",
"A c #C9BAA6",
"S c #C7BAA9",
"D c #CCBDAA",
"F c #D0BFAC",
"G c #CFC0AC",
"H c #D2C2AE",
"J c #CEC2B1",
"K c #D5C5B2",
"L c #D8C7B3",
"P c #D7C8B4",
"I c #DACAB6",
"U c #D6C9B8",
"Y c #DDCDBA",
"T c #DFD0BC",
"R c #E0CFBC",
"E c #E2D2BE",
"W c #DED1C0",
"Q c #E6D5C1",
"! c #E8D7C3",
"~ c #E7D8C4",
"^ c #EADAC5",
"/ c #E7DBCB",
"( c #EDDDC9",
") c #F0DFCB",
"_ c #EFE0CC",
"` c #F2E2CD",
"' c #F5E6D1",
"] c #F7E8D3",
"[ c #F9EAD4",
/* pixels */
"H_^^E)^^^^~^_Pe;;;4wuslgggzvzahafhfhapp961,%+%qMWWUILIRLLLLLLLLL",
"I`E_(`^)^^)Ei0;5wejjsjjjgjNNNhvcnMcnbbcggay94>$%7nYILYLLLLLRIILL",
"E__^`E)(([B00uijkkxxczmGFFIFACCVNVNcvvNznzhhffr64%fQILIILLLLIILL",
"E_E_E)))^i00cmmZAHHIYTW~~!!QRQQQUKCzzzzcBxxNczhfae8gYRIILRLRYYLY",
"^_E`_E)Ey5pjmmZZHLIITEE!Q!!Q!!!Q!!RAACCFLHFFFFNNggatyHRIIIIIIIYI",
"_^_`)`Ei2jmvBGZGHIITTEEEQQ!!!QQ!Q!!!!!!QEEERIIHFDBzkswDEIRIIRIII",
"__^_EEk4scnGVGGHHIITEEEEQ!!!Q!Q!QQQQQRQRRIIRRIILKHAnvjwKRIRRIIIR",
"_^_E]F4imcmAAGHPIITEEE!!!!!!!!!QQERRRRIIRIRRRERRYKHDNCa0RRERRRRI",
"_^((`iwmnBGAAKKPYYEE^^!!^EE^EEEEERRRRRLRRRRRRREEEYIKGBm0i)YRRYYY",
"_^~_IwnmBAGGGKPIEEEE!^^!^^^^EERIRLLKLFFLFLLRLREEEERIKGBB0AERYYYY",
"~^(`jeZmZAAGKKITEEEE^^^^_EEEEETRRRRLRRRRIRRREEEEEEEETPGBieLYRYRR",
"^(_(eiGmBGZHKKTEEE`^!^^(^__E_E~EEERRRERERRRREEEEEEEEEIKGBexEYRRI",
"`_`T0knZBGGHKIE~E^^E^^^^__E_E_EEEEE!E!EEEEEEEEEEEEEEEYIPAviEYYYY",
"`_[AyZinGAAKTEE~^E^_)^_^^``^_E_E^^!^!^^!E))E)E)EEEEEYYYPGBiBEIRI",
"(_]ckmiiBHGYEE~~^_^^^__)^_`_____^^^^^^^^))E)E)EE!EEEEEEPPGkxRIRY",
"_']iiuwyvPPEEE~^^^__^_^__`))____)^^^^^)^)E)E)E))!^EEEDHEPGNiIYRR",
"_`'j0e5ebPPTT~~_~____/__________(^^(!!(!(^^^^^~_^^EEQJPWUPVaLYRR",
"_`_cu0eiMTTT~~~_________________(()_^(((^^^^^^~_E^E^~~QTYIShLRRE",
"``_je0ujGPWW~~___~WUUUJJJSSSZSSJ~(_^(^((^Q~YZPWWEE^EQTQTYTSgYRYR",
"`[]i00ucJW//__TMujjsjutuppuupfpfnI((^^!!QQTjafplNnGRTWQ~YTVzQYRR",
"]][i0uiGUSbbjue5555525retppjjllbnZT/!!!QQEHpqyyrejpplmJKWWbz~WYT",
"]]]i0jZm50u5;;0etuertutr005750ulMSGYWYYYRYnyppppuyq0qrrrrppcWQ//",
"]]_Mmmjj;5s05uumbmSSJUUJJSMbse5;7albbNVCSKbyq932-*****OOOo$$:<rz",
"]'_SmmZZb5;,elmGSJPJPTTWTTUJUJSj>+*fSSAASV9**$O:0qrppr073<$o@@<<",
"]]]viPPGGZ5;umZPPTJP~~~TTUUJGSGJz<%4agffpr@O*qyjDWWWUMnnzgnp$@33",
"[~~miGPGGPmjmBG~TTPZcijlljfZPGSbMp>tfnMz62$2bZzfahabSKFAblS/9oX:",
"TmcmiPPHTTP_HBTETTstuuecicZcZGGGYbqbKYUUnptSSppqapMzpaSDVcZQp.XS",
"im~iivIPTPP~EBGHJSmMckkmjMGcjZT~JphKQYUQKhzSbjzlbgUKCanDZVVQblzW",
"ZiTTciPTPPP~_GGHJPPHZZAGGGGPTT~~ZaKEQWYTYDvCWYLFDDVVCSDKPPDQbQ/W",
"~uZ[TmATPPT__~AT~~~ETTITET~T~~~'lnYQQQERQYNDQQWFUUKFKPIYUYHUbQYW",
"]Zm__HmTPP~~^_EG~_~~~~~^^~~~~__AbKIQQ!QQRQAF!Q!!RIYWYYYREYUAn^RR",
"'~GPT~vPTPT____~HT~_^__^_^__^PvZEPDEQQEQQRWVQ/!!WYRQRRQQEYIvKQRW",
"]_AAATBBEIEI~_)``EEE^EEEEYYHAZP~YPKT~~E!!RLRAE^^!QE!Q!!QQQNVQWWR",
"``HPGHIBET~E~()`']_EEEERIYRE^_~YIIYT~~!!EEFLQAFREEEEQQQQINNFWWQR",
"`_IAGGIVAEE(^^(_```_`'[`'``__~TKGHYEQ!(^!!FCR!RLFFFFFFFFNDFWEQQR",
"`^^IHAGABTE^^^((``''`'```__^~YGAZHYEQQ!!!EEFF!!^^(()!QRLIFCQQRQQ",
"`^(EIEEIiTE^^^^((````````__^~HGHHIE!!!!^!!ERVQ^^^^^^^^QRYFNQ!!EE",
"^_^^AT_EBT~~^^__(````````'`^QKPHPYEEE!!!!QE!FR^!^^!^^QRILFNREEEQ",
")(^^TBGABHE~~^(_````'```___^YIYFPE^EEEQ!QEQ!IF!!^^!!^QIIRFNRRREE",
"`_`^(EATIBE~^^^_``````'`____ELYvdaxRREE!RNghIFQ!!!^!^QQILCCRRRQR",
"))(^^`)`EBEY~^^__`````'`)))(!LSznCvFHHHDxvzsVFQQ!)!!!RRRLNLRRRWQ",
")))))^^)~BIYT^^())```'``))))((~FDSVBDIEEBDDCIQ!Q!!!!!!!!FNWRWWQR",
"^_^``)^(`ABPIT^^)```'`````)Q^QFlzfaxAHVvznzNDI!^!!!!!!RRCFQ!!QRQ",
"_^````^)'ABEYP^^E'````'`/WnVMhffjdanBvgjnnhaNccBCLL!!R!RNF!!Q!QQ",
"^)(```)^]FxEEREEE````'ERSlzMbfafzgzcbcHZzxcgcNhzhxNFQR!SxQR!!R!!",
")^))`````ExHIEE_`````ECNzzbnzfhznmzcZTEEVnbnnNzVxhzzLRRCN!!!R!!!",
"))))^)```[BNRIRE_)``EFxdblhffgxcmbvczvbkzhgnnkNnxzzgC!RCF)R!QQ!R",
")))`)())``(vHIREEEE_`NdkzaVCzbxNccVmBBnBVSNBkghANNhxxRLxR!!!!!!!",
"))))_(`(``]ENTIIE!!(EixxxK_~EELFLREE^E^^E!RLLRE^RChCxWFhQQ^!QQQQ",
"^`))`_^`(()`IHIHI!^(HNACE_(^))!RLFLILLLLLLFL!)^^!!ChVFxC^!!!^QQQ",
"^`))`_^`^^`)(HAIEHE(HNHE(^^^(^))^EEEEEEE^)))^E^E!!/NzzN!!!^^!!QQ",
"^^^)(()``^^(``HAHHL(IH!^~^^^^^(^^^^^)E^EE!!!)^^^!!WCNVR!!!^!^!!!",
"^^^^__^^`^^`(`EBiHHEEE^^^^_E^E^^ERRILILFILIE^^^E!!FhCR!!!!Q!!!!!",
"^^^_^(_^^```(`THHBBCAE^^^^E^E^^ERILLFLFCIRREE^^!)FFhC!!!!!!!Q!!!",
"^^^^^^_^^((^^`IHEIABAIE^EEEE^EEEEEEEERE!!EREE^^EWFVCF!!!!!^!!^!!",
"~~^^^_^^^^`^``IHTEEIBiF^^EEEE)E^^^^EE!^E!!^E^)EENNRLF(!!!^^^!!!!",
"~~^^^^^^^(^`^_IHIEREEFNiNLREE)EE^^^^^^^!^REERLECxRQYCRR!!!!^!!!!",
"E~^E^^^~^^_(^_IHIREEEEEAikBHEEEEEEEEE^!RRRLLLLCNQ!RQFNYRQ!)!!QQ!",
"E~~^^^~^^^`(^_IALIEEEE^^RNiNFEHE!REREIEEEEIFCixE^!QRLFNNNVFLWQQR",
"EEE~~~~^^^^^^^HALLRR!^!EEINNxNhLFIFCLLLLFCCCxL)E!!QRYFDfah9adxNC",
"TTE~~~~^^^^^^^HAHHIIEE)EEEIHHCNhhhiihhhxxFIE)))!!QWRRFFgfzlppppy",
"ITTEEEE^~~^^^EAAFHLIEEEEEEELHEEELFFFFLRE!^^!Q!!!QQQRRFDygfzfhxzx",
"ITTEE~Q~^~~~^TAPFFIEEEEE)EEEIIEEEEE)EEEE!EE!!!Q!QRRRYRbabahgnnNN",
"TTIEQQ!Q~~~~~HAILHIEEEE)EEEEERIE)E)EEEEERQ!!!!!QQRRRRSyhbazgVNxN"
};
