/* XPM */
static char *dd69f81943594533fa7af5508573cf6a[] = {
/* columns rows colors chars-per-pixel */
"64 64 256 2 ",
"   c #050300",
".  c #0A0301",
"X  c #0C0A04",
"o  c #0E0D08",
"O  c #070A02",
"+  c #130401",
"@  c #120C04",
"#  c #1C0C01",
"$  c #110E09",
"%  c #1A0A05",
"&  c #131303",
"*  c #1B1304",
"=  c #14120B",
"-  c #1B140C",
";  c #1D190C",
":  c #1A1B05",
">  c #1B1911",
",  c #0F1006",
"<  c #230D00",
"1  c #2C0C00",
"2  c #241303",
"3  c #2A1501",
"4  c #2C1B04",
"5  c #24150B",
"6  c #231B0C",
"7  c #2C1B0C",
"8  c #261806",
"9  c #331C02",
"0  c #311D0A",
"q  c #3A1701",
"w  c #231C12",
"e  c #2C1D14",
"r  c #2D1B18",
"t  c #32160C",
"y  c #1D3207",
"u  c #1B2407",
"i  c #29230E",
"p  c #282708",
"a  c #34230C",
"s  c #3A240C",
"d  c #372807",
"f  c #283607",
"g  c #383A0B",
"h  c #2B2413",
"j  c #2D2B19",
"k  c #2A2616",
"l  c #342313",
"z  c #392612",
"x  c #332B14",
"c  c #3C2C13",
"v  c #322C1B",
"b  c #35261A",
"n  c #2C3414",
"m  c #393618",
"M  c #352C22",
"N  c #3B3624",
"B  c #393B2C",
"V  c #441600",
"C  c #432D0C",
"Z  c #452A05",
"A  c #582A00",
"S  c #473709",
"D  c #553606",
"F  c #422D16",
"G  c #44341C",
"H  c #4A3C1D",
"J  c #463716",
"K  c #563A15",
"L  c #643903",
"P  c #61370E",
"I  c #4B3C23",
"U  c #453A28",
"Y  c #4F3C2B",
"T  c #384507",
"R  c #394619",
"E  c #3A4D0E",
"W  c #394624",
"Q  c #46490B",
"!  c #564508",
"~  c #49550C",
"^  c #54580B",
"/  c #484916",
"(  c #554718",
")  c #495617",
"_  c #575917",
"`  c #654A09",
"'  c #65481A",
"]  c #685919",
"[  c #76571B",
"{  c #6C520C",
"}  c #576A0C",
"|  c #576419",
" . c #566816",
".. c #6C631D",
"X. c #67691A",
"o. c #77651B",
"O. c #76751C",
"+. c #67761B",
"@. c #4A422C",
"#. c #474726",
"$. c #56472A",
"%. c #4A5727",
"&. c #575826",
"*. c #4B4733",
"=. c #584A36",
"-. c #585536",
";. c #4C5B36",
":. c #674A25",
">. c #685825",
",. c #755A24",
"<. c #6A5B3D",
"1. c #635638",
"2. c #785431",
"3. c #4C6127",
"4. c #586525",
"5. c #566934",
"6. c #6D6323",
"7. c #686926",
"8. c #736B2C",
"9. c #776826",
"0. c #6C732B",
"q. c #697827",
"w. c #777627",
"e. c #686637",
"r. c #776A36",
"t. c #6C7734",
"y. c #787835",
"u. c #685C45",
"i. c #6D6244",
"p. c #746748",
"a. c #7A7444",
"s. c #7A6B51",
"d. c #7E7355",
"f. c #6A7052",
"g. c #7F7764",
"h. c #913311",
"j. c #895A17",
"k. c #89671A",
"l. c #905C24",
"z. c #836424",
"x. c #8C6C2B",
"c. c #876927",
"v. c #97692A",
"b. c #8B732B",
"n. c #857728",
"m. c #93742B",
"M. c #9B7C2D",
"N. c #96792A",
"B. c #876737",
"V. c #966C35",
"C. c #8D7A35",
"Z. c #887836",
"A. c #987936",
"S. c #A3672B",
"D. c #A4762E",
"F. c #AA6D32",
"G. c #A46D33",
"H. c #AD7235",
"J. c #AD7539",
"K. c #A57B3A",
"L. c #AC7B3B",
"P. c #A47735",
"I. c #B17336",
"U. c #B3763A",
"Y. c #B57A3D",
"T. c #B97C3E",
"R. c #B47A36",
"E. c #B4792F",
"W. c #A4581C",
"Q. c #877944",
"!. c #987A45",
"~. c #85785A",
"^. c #92724C",
"/. c #A87B44",
"(. c #B57D43",
"). c #BA7E42",
"_. c #B67F49",
"`. c #A77D54",
"'. c #897C60",
"]. c #C17F43",
"[. c #77831C",
"{. c #7A8427",
"}. c #7B8435",
"|. c #6E8129",
" X c #7E8843",
".X c #84852A",
"XX c #8C842B",
"oX c #898527",
"OX c #93832C",
"+X c #97842D",
"@X c #888537",
"#X c #948234",
"$X c #9C8334",
"%X c #9C833B",
"&X c #978937",
"*X c #92913A",
"=X c #A48434",
"-X c #A4843B",
";X c #A48B3C",
":X c #A98739",
">X c #B5843B",
",X c #A8933B",
"<X c #B5933C",
"1X c #B78D28",
"2X c #C99533",
"3X c #D9A937",
"4X c #D7A62F",
"5X c #E1AB3B",
"6X c #E9B33C",
"7X c #888745",
"8X c #998746",
"9X c #9A9247",
"0X c #8B8357",
"qX c #9C8354",
"wX c #9C9353",
"eX c #8A9144",
"rX c #A88746",
"tX c #B58244",
"yX c #BD8244",
"uX c #B4844B",
"iX c #BB844A",
"pX c #B78B49",
"aX c #A7964A",
"sX c #B69449",
"dX c #A88855",
"fX c #B88955",
"gX c #B99357",
"hX c #A89454",
"jX c #8C8263",
"kX c #8F8468",
"lX c #958969",
"zX c #9B8D72",
"xX c #9D9273",
"cX c #BB9665",
"vX c #A59A7A",
"bX c #AF8C66",
"nX c #ABA275",
"mX c #C18446",
"MX c #C28649",
"NX c #C48A4B",
"BX c #CA8C4C",
"VX c #C48B45",
"CX c #C7954B",
"ZX c #C68E52",
"AX c #C99356",
"SX c #D49554",
"DX c #D2A749",
"FX c #E6B74A",
"GX c #E1B251",
"HX c #C49561",
"JX c #E7BE6C",
"KX c #F2C14B",
"LX c #A99D81",
"PX c #ACA282",
"IX c #B3A787",
"UX c #C1B38E",
/* pixels */
"; ; ; = X - - k m k h i 6 N ; i i W N , : *.N X o X X , = - ; - - v v x r.0Xn : p m k : u i k *.@.r > j y ;.W f n u k b M r r r ",
"w = ; =   , - ; v h v h 8 M ; j j k #.#.m #.p X X   X X X - - & w 6 v i e.5.g R f / m n #.n v Y @.w > j m p %.&.u W v k M r r r ",
"> - = , o . X = 6 i *.j 6 v 6 M *.: #.#.m #.X k e.p X   , , . = M & M v 8 g 0.@X@X9XwX8.a.J *.*.U h ; j -.g r.e.e.5.z l M r r r ",
"O , o X . o . = - h j M M 6 6 U =.p x #.%.U X h nXwXe.m * . . X , X ; ; : n  XeX&X,XsXA.r.8./ @.Y h * i.<.>.Q.:.8.&.a j M l r r ",
"X X o O O O o   $ = 6 6 k i v @.j k : h *.m   d aX&XaXhX#.5 5 - @ - X > > & T 9X&X,X<XaX[ Q.H Y U b < '.' B._.V.z.7Xa l b r r b ",
"; $ > = O   o   X > j 6 N N U -.v v B & n N   p 9X,X,X9XS 8 e r 5 X , $ - , : e.9X,X,XCXK.Z.$.#.Y b 3 xX:.V.I.W.gXB.4 b b l r b ",
"- O = - O .     X . - ; k j @.U N i N k , M O : wX9X,XhXJ 4 e j > . X X o X ; d 7X;X,XsXaXwXe.#.G s 3 B.8X/.W.h.G.B.4 h h h w b ",
"= = > > o O O   X X $ 6 w i v *.@.v N B = = X X &._ 8.7Xd 7 e k - . . X $ X > & Q wX9X$Xr.y.a.J a $.K >.Z.z.h.h.l.,.g x R m j i ",
". = = o o $ o . = o @ = w * M -.j U N M ; X , X m &.( ( z 7 e r >   w = & > = & & g a.e.y n W R H 2.>.S &.( P ' >.#.%.3.4.3.;.%.",
"$ o $ o o = .   = . X @ ; v k *.*.r w k k & X & j #.-.#.x 7 7 r -   j U = u w @ * & m g y y y f :.K ( e.%.T Q g / 4.) 4.4.3.&./ ",
"o . o o o o     $ X $ = > B M x *.w Y N - = X X , n %.#.x 7 e k >   n ;.n & : > , , n y y R y f E / / E T 3.&.g Q X.6.0...6.9.B.",
"o o . o o   O O X $ , , X B @.6 u.N g.f.* $ @   j n ;.;.x i e k >   n #.;.n p m u n W f y 3.R R ) 3.g f E _ ] _ y.C.rXrXA.rXrXgX",
"o o   o O $ =   O o > = , w k 6 =.N u.N @ ; $ O = n n #.h 7 h r >   n a.5.) R f E R y y ) E f T t.4.( Q ( 9.gXrXgXHXpXpXsXfXiXiX",
"o   o o O = o o o o o = = - w j N B U *.X X = X   *.;.#.s l h r =   p %.3.) %.T ) 3.g &.a.4.&.#.a.Q.Q.>.Z.rXgXBXBXNXBXNXZXNXZXBX",
"o O > o   o o $ O o , > > > k j B -.u.f.O , $ @ @ : i.e.z 5 e e @   k #.#.5.%.&.f.e.e.0Xt.1.e.:.1.:.'.dXuXfXNXMXVXmXNXNXMXyXyXyX",
"$ o o o O X o o O $ , = , : j j N u.=.j X w w 6 ; * #.<.H G b r - . * i p p 4 8 p d 9 4 ; 2 a 4 3 3 q :.HXNXNXBXNXNXmXmXmXmXmXVX",
"= o - = O = o o   $ , O k n B M B @.G G *.Y U Y G I I G G G b l e 6 # # # # # 2 4 a z + + 8 7 t 2 2 # K HX_.mXNXNXmXyXmXMXNXNXmX",
"@ o X @   @ . . X O u ;.f.W j > 5 8 c I I I G e 4 4 c c a 0 5 t 8 2 < 7 s 4 a 7 3 8 t 5 5 5 l 7 < 5 1 I cXiXNXNXNXNXMXMXNXVXVXmX",
"d 4 x p c a 7 p n R ;.;.;.W ;.B x a 0 a s 0 4 4 a z c s s G 8 2 3 I =.c Y d.d.d.=.1.s.=.3 t 4 0 l 0 5 t fXZXNXNXNXmXmXVXVXiXyXiX",
"qX`.Q.B.qXqX^.r.r.0X&.) 5.5.;.n c z s a 1.s.<.'.s.z $.<.p.'.p.1.=.zX1.'.1.1.xXnXi.lXzX$.0 s 4 t 0 t # q gXZXMXVXmXmXmXmXNXCXyXyX",
"uXuXuXuXuXuX/.rXdXfX8Xr._ &.:.G F G F $.'.vXjXi.xX&.zXvX1.#.lXkXzXp.p.nXzX<.~.lX'.kXzX1.c 9 s t 5 2 1 :.ZX_.iXyXmXMXBXBXNXVXNXNX",
"(.tX_.(._.(._.uX(._.dXdXrXdXnX^.# # 7 s a ~.xXjXjX1.d.d.$.J lX1.H <.zX<.<.p.jXi.$.'.~.p.I l z 5 + $.`.cXfXNXyXpXmXmXVXBXSXAXBXNX",
"uXuX_.tX_._.(.tXuXtXuXuXuXdX^.I z z F c a $.nX1.~.'.kXjX'.$.=.J c =.I a c G =.$.F H $.1.s.=.< + 1 bXHX_.iXiXyXNXVXVXBXBXSXBXBXBX",
"_.iXiXtX_.uX_.tX_.(.(._./.fX:.q s z c F p.kXvXxX~.m H #.c s I p.'.~.1.p.jX'.'.i.s.kX~.~.p.2 + + 2.cX_._.NXNXZXVXmXBXSXSXBXVXCXNX",
"_.)._.(.(.(.(.(.(.(.(.tXfX`.C < 3 0 z s G 1.=.$.i.0XjXkXkXG 0XvX1.PXi.d.d.#.IX1.e.PX&.$.1.b - + 2.HXNXNXmXNXVXmXVXBXAXBXmXmXmXmX",
"_._._._.(._.tXtXtXtXtX/.B.C F F l z F G G G G i.PXd.1.lXxX$.lXp.c s.<.s.jXxX~.d jXPXvXxXu.t % + K cXuXMXNXmX).yX].NXNXNXBXBXyX(.",
"U.U.Y.iX(.J.(.iX(.(.fX[ q q < 2 5 2 7 z F c 1.xXkXH #.kX~.-.nX~.zXnXd.jXPXIXd.d d.xX$.< < 0 5 # t cXfX).mXyX).).).T.yXmXmXNXyXR.",
"(.(.(.(.G.S.(._.S.H._.`.^.C 7 t 5 5 t l F c i.IX<.F I vX1.1.lXc a.kX-.LX'.p.vXd 1.xXi.<.p.s.=.3 1 ^.uXY.yXmXmXNXNXyXmXNXMXNXBXBX",
"(.U.(.(.J.J.J.tX(.U._._.HX^.s l t 2 l c c a Q.lXJ m ~.lXH xX~.8 kXs.8 zXu.4 zXi.kXPXzXd.i.=.l # q `.iXmX).).Y.U.Y.R.yXyXmXMXNXNX",
"_.J.).Y.G.H.iXU.J.J.(.(._.V.s l 7 # 3 9 3 ' aXeXD e.UXs.#.xXd.u.LX*.c lXp.8 -.jX1.lXH # 9 3 t + 1 bXfX).(.).(.Y.J.I.T.mXmXVX].].",
"MXmXMXiX).).(.F.J.G.H.J.J./.s t 7 3 < 2.{ 1XFX4X1XaXQ.F <.zX~.s.u.b G ~.U 2 8 c c / d C S J c # t `._.).yXmXT.J.T.yXmXMXmXyX).T.",
"H.F.I.T.).I.T.).(.U.H.U._.`.:.1 < c Z M.JX2XKX3X4X<X! d <.$.4 2 2 7 7 0 5 5 7 2 d Z J J D J F C :.`.(.).tXJ.F.I.).yXyXT.yXmXyXyX",
").).].].].U.).iX_.).(.).(.fXK < 3 :.DXCXCXl.j.D.FX1X:Xd 3 # % < + % 5 % # # 5 3 C J C Z t s J D ' ^.MX).Y.U.).).).yXR.U.I.R.tXmX",
"I.].T.T.U.U.).U.(.U.(.).I._.B.V D ! GX1XV 1 V V j.DX2X[ # 5 % + + + + + % % # F C C s 1 # + 9 d 9 B.iX).)._.).).).iXyX).yXT.R.yX",
").U.T.U.U.T.I.I.S.I.I.I.I.I.(.G.E.DXpXA 1 9 1 V A 3XFX<X# . . . . . . . + . 7 G C 9 < + + . # F Z 2.fXU.F.I.Y.Y.Y.Y.(.U.F.Y.iXT.",
"].BXBX].].T.T.iX).).].MX).).VX>X2XFXE.q 3 4 1 1 A DXFX<X3 . . . . @ + - Y z 3 J C q + . . . + F Z :._.(.(.U.U.).).).).).Y.(.T.(.",
"].].].].).).).U.(.MX_.MXU.T.NX2X4X5XE.V 1 < 0 1 A 5X2Xj.^.=.r e r 5 - M `.^.K Z C 3 # .   . & J Z ' (.J.(.).).T.).).(.(.Y.Y.Y.Y.",
").U.T.).).).(.T.U.I.).).R.I.H.E.4X4X2XL 1 q 1 q 1X5XFXVXdX3 5 - > . . t `.fXV.Z C 0 + . . . 9 C B.uX_.].T.I.Y.].).U.I.I.U.U.I.Y.",
"I.I.T.).].].].ZX].).ZXMXmXBXNXVX2X4X5X2X` A h.1X5X4X2XCXdXq < - $ + . < `.ZXfXD D C 3 # # 9 S Z L /.).).).T.I.].SXBXmX(.U.T.).Y.",
"mXmX].].U.F.U.).].BXMXHXAXpXZXyX1X4X6X4X2XFXFX5X4X1X2XyXcXZ + % % X . 5 `.(./.P D ' d J C J C Z [ iX].mXNXT.I.).].).G.W.U.I.I.Y.",
"BXmXBXBXVXR.H.R.(.V.j.[ ,.[ V.gXBX2X2X2X4X6X1XDX2X<XpXfX`./ @.N M w = + B.fXMX_.`.' Z J S S Z V.AXZXAXNX].S.S.G.U.H.I.H.U.MXBXBX",
"L.T.D.S.H.yXI.S.G.P.!.V.,.D D ' S.R.>X2X1X2X{ <XAXL.P.[ :.H x 5 > @ . + B.HXZXZX_.' D ( ' ' c.uXiX>XyXF.S.(.BXMX(.F.MXMX).].].].",
"D.D.G.v.l.H.F.T.V.P.sXZX(.K.x.{ L (.P.v.k.sXo.o.pXG.l.`.HXZ # % + $ . . B.ZXP./.K.uX[ B.fXuXiXNXyXyXtXP._.ZXMXU.S.W.S.).MXBXMXU.",
"N.:XpXD.v.pX>XpXrXm.(.(.L.tXfXcXA.!.K.x.l.gXo.k.fXG.l./.fX$.# - + o . . :.`./.j.uXHX[ !.iXH.yXMXyXMX(.J.J.(.I.l.F.)._._.J.S.).MX",
"D.rX:XD.M.pX=Xm.A.! V.L.L.x.[ >.&.>.Q.!.z.cXc.] V.l././.fX' # $ . @ X . :.cXhX[ A.AX[ !.NXY.>XmXtXD.>X-XV.tXL.U.T.NXyXmX).L.J.G.",
"=X-XK.D.D.:XM.c.n.' v.rXrXuXZ._ Q Q ( >.,.dXB.D /.v.V.G.`.' # k M B B M ( dXdXo.c.gX[ !./.).T.L.<Xm.L.pXA.l.P.L.>XL.T.tXG.(.V.l.",
"x.A.b.x.=X=X+Xo.rXb.v.rXA.m.rXC.' _ S S ,.!.9.6.dXA.uXuX!.K # 5 - - > 6 H ( >...>.8X,.!.V.K.H.sX;Xk.>XtXP.o.K.K.K.m.rXK.c.tXA.,.",
"z.z.x.b.>X=Xn...aXx.[ rXK.m.-Xb.9.wXr.8.Z.8XZ.6.A.c.x./.dXK # 5 * @ .   a ~.8.S ..x.{ V.8Xz.M.pXn.n.sXK.rXz.:XA.rXo.K.A.m.!./.z.",
"P.P.B.x.K.:X{ c.pX=Xm.m.m.n.;Xo.[ dX8X>.C.Z.r.( D ` z.C.8X( # % @ % . . + ~.0X` A.8X[ y.8X` z.%Xo.n.hXN.-Xb.N.#XC...Z.o.A.x.Z.A.",
"/.pXV.l.P.K.c.%X-XrX=Xn.C.b.-XN.o.%XA.b.9.A.8.8.8X%XM.A.dX' < - % @ X   # <.Z.D 8X#X] r.Z.] O.n.] 6.9Xn.n.#Xn.9X6.8.9.,.Z.c.,.8X",
"T.(./.v.P.sXrX:XD.N.n.O.n.$X=X-Xv.x.rXx.c.8X8.] %X+XM.A.rX' < e % - @ . + <.Z.] ;Xn.] 8.w.n.o.@X/ _ @Xc.o.*X..@X] Q.4._ ] @X..C.",
"yXtXL.P.K.sX>XM.M.+Xo.N.c.=XrXpXaXN.rXx.C.8X7X] #XA.$X%XdX' 3 6 - % @ . # <.^.b.&Xn.7.Q w.y.X.}.~ &.9X^ ^ @X9.w.] 9X8.) _ 8X8.O.",
":X=X=X=X=XM.M.:X:X$Xk.=XN.-XrXtXpX-X-Xx.x.8XZ.6.7X8X%X8XrX:.3 e 2 5 % . # r.!.M.N.n.8.T X.q.q.@X4.4.y.^ ~ y.y.] ` 7X| T _ }.8..X",
"N.+X1X=X=X=X$X=X;XN.+X=XN.m.c.K.m.m.m.c.z.A._ Z ( ! ] C.dX( 3 e 5 - +   2 ^.rX:X+X#X8.Q 0.+.^ | ^ ^ @X| ~ 0.}.7.6.y.4.~ f 7.| {.",
"+X+X+X+XN.N.+X-X=Xk.:X=XM.b.{ *X#X$X%Xb.c.#Xy.6.6.....C.8XS 8 6 5 - o   a qX%X=X$X8X8._ 0.| w.X.w.+.@X| g | @XO.w.7X) 4.f t.+.{.",
"+XN.N.N.M.:X=X=X%Xo.;X=X;X&X! y.&X#X%Xb.n.rXn.C.9.@XXX9.Z.S 4 5 e % $   d wXA.;X$X#X9.7.q._ @Xw.n.XX.XX.y 4.*Xw.y.Z.) | ~ }.} q.",
"OXN.+X1X:X<X=XN.#X..$X+X+X{._ 0.9XC.A.C.] hXr.y.6.Z.@X] Z.d 7 5 5 % o   m 7X9.#Xn.6.8.0.q. .w.n.n.&XXXw.f 3.w.O.XX{.| t.4.|. . .",
"oXOXOXM.+X$X;XOX.X{ XXoXXXw._ | @Xc.,.8X! C.w.6.X.| Z.y.r.d a 6 5 - = X / r.@Xn.6.7.7.0.w.T _ C.n.OXC..X~ _ 8.w.oX.Xw.} +.y.^ ) ",
"oXN.oX[.oXoXoXoX{.^ [.{.{.|.~ E 0.+.6.7X_ 4.6.}._ | @X6.y.z s k 5 - = & #.t.@X@X) | 4.4.0._ ] C.N.$X-X&X^ ~ @XO.oXXX.X^ w.@X^  .",
"oXoXn.n.[.oXoXoXw.} {.[.{.{.) ) 4.0._  X&.~ |  X7._ eX_ y.d x a ; j & p f t.}.X. ._ | | t.] 8.Z.rXM.-XC._ 7.w.O.oXOX@Xo.n.#Xq. .",
"+X+X+X+XOXOXOXoXoXO..X.X[.q.| T | y.Q 7X) ) ) |.| E |.0.&.4 G : p N O y f 4.@X} } |.) 7.4.r.>.o.A.;X9XO.w.X.w.C.OXOXXX.Xn.*X.X~ ",
"OX+X*X,X&X;X,X,X&X*X+X#X&XX.~ E / 7._  X)  .E 5.) ~ q.y.7.p *.: m W   3.5.~ eX+.} }.~ t.( >.r.,.b.%Xn.X.w.O.#XO.b.XXXXoXO.XX.X^ ",
"oXoXoXoX+X:X:X<X:X:X=X:XsX../ &.4.&.0.+. .t.E 3.5.q.q.q.4.p #.p W f y 5.3. .+. .}  .~ 0.t.^ 6.r...*XO.} [.oX#X9.] ;XoXoX[.[.{.} ",
"[.oXoXoXoXOX+XD.=X:X>XuXpX,./ ) d.Q 0.y.}.q.) )  .|.|.q./ p ) m R n 3.3.) q. .q.+.+.~ 0.7X] >.Q...{.|.} [.*X;X#X{ @XoX[.[.[.|.[."
};
