/* XPM */
static char *_31f7386c96b40a98d259fc514d930ed[] = {
/* columns rows colors chars-per-pixel */
"64 64 256 2 ",
"   c #0B0804",
".  c #160C08",
"X  c #1B130D",
"o  c #181407",
"O  c #1C1512",
"+  c #1C1915",
"@  c #1A1816",
"#  c #271906",
"$  c #221514",
"%  c #251B13",
"&  c #2A1D13",
"*  c #231C1A",
"=  c #2A1A19",
"-  c #321D0F",
";  c #2B2607",
":  c #372706",
">  c #3A350A",
",  c #2C2116",
"<  c #25211E",
"1  c #2C231B",
"2  c #272617",
"3  c #32251C",
"4  c #34291C",
"5  c #392918",
"6  c #3B3617",
"7  c #2F3011",
"8  c #0F1633",
"9  c #1C233D",
"0  c #252321",
"q  c #2A2622",
"w  c #2D2925",
"e  c #2D2A29",
"r  c #3A2D23",
"t  c #322E2A",
"y  c #382722",
"u  c #373229",
"i  c #393632",
"p  c #2E2E38",
"a  c #202114",
"s  c #452D05",
"d  c #473804",
"f  c #452A1B",
"g  c #463719",
"h  c #533B12",
"j  c #433424",
"k  c #4B3B24",
"l  c #493A2A",
"z  c #543C26",
"x  c #49302A",
"c  c #603F1E",
"v  c #4D450B",
"b  c #564709",
"n  c #5E570C",
"m  c #484417",
"M  c #524D1A",
"N  c #574A15",
"B  c #5A5519",
"V  c #65570A",
"C  c #645A18",
"Z  c #76571B",
"A  c #6A500D",
"S  c #746506",
"D  c #6C6A1B",
"F  c #696516",
"G  c #726D1B",
"H  c #766918",
"J  c #74731C",
"K  c #7B7A1D",
"L  c #787519",
"P  c #6A630E",
"I  c #494626",
"U  c #5B442A",
"Y  c #544628",
"T  c #585325",
"R  c #4B4636",
"E  c #594935",
"W  c #585635",
"Q  c #664A2B",
"!  c #665927",
"~  c #795728",
"^  c #664C33",
"/  c #685638",
"(  c #785937",
")  c #724B2A",
"_  c #6A6525",
"`  c #756B26",
"'  c #747323",
"]  c #7C7C22",
"[  c #777529",
"{  c #6B6737",
"}  c #766837",
"|  c #777835",
" . c #6E7133",
".. c #2E3652",
"X. c #1F325C",
"o. c #38496F",
"O. c #53504F",
"+. c #6B5946",
"@. c #786746",
"#. c #6F6D4F",
"$. c #4D546E",
"%. c #706F6C",
"&. c #556074",
"*. c #887604",
"=. c #85791A",
"-. c #917813",
";. c #815C2F",
":. c #876428",
">. c #847A26",
",. c #886737",
"<. c #847735",
"1. c #947432",
"2. c #916F29",
"3. c #876B46",
"4. c #92734A",
"5. c #A47B45",
"6. c #867A6B",
"7. c #885744",
"8. c #7D802F",
"9. c #86831F",
"0. c #97881B",
"q. c #9B880E",
"w. c #A89519",
"e. c #B29E17",
"r. c #A48D11",
"t. c #B7A51B",
"y. c #8D8B24",
"u. c #878625",
"i. c #968B27",
"p. c #979526",
"a. c #8C8836",
"s. c #968A36",
"d. c #969439",
"f. c #8E902A",
"g. c #A89727",
"h. c #B49B28",
"j. c #A5843A",
"k. c #A89A35",
"l. c #AC922D",
"z. c #BAA727",
"x. c #B9A936",
"c. c #B1A835",
"v. c #C4AC1E",
"b. c #C59C29",
"n. c #C5AB28",
"m. c #CDBC2A",
"M. c #C8B526",
"N. c #D2BD2A",
"B. c #C5AA37",
"V. c #C8B836",
"C. c #D1B736",
"Z. c #D4C32C",
"A. c #DCCA2C",
"S. c #D8C529",
"D. c #D8C736",
"F. c #D8CA2E",
"G. c #E1CD2C",
"H. c #E5D42C",
"J. c #EADB2C",
"K. c #E9D829",
"L. c #E1CD37",
"P. c #E8D735",
"I. c #EDE12C",
"U. c #F1E235",
"Y. c #978F4C",
"T. c #AA8A46",
"R. c #B38B4B",
"E. c #B99955",
"W. c #AE924E",
"Q. c #A7A448",
"!. c #B8AB48",
"~. c #B5AD58",
"^. c #938E6F",
"/. c #A7956D",
"(. c #BCA464",
"). c #B6AC72",
"_. c #9DA051",
"`. c #C9B644",
"'. c #C5AE50",
"]. c #C7B673",
"[. c #C49967",
"{. c #D6C745",
"}. c #CCC159",
"|. c #D9CD4D",
" X c #E8D746",
".X c #E7D54F",
"XX c #F3E449",
"oX c #F2E555",
"OX c #D6CE6D",
"+X c #E4D673",
"@X c #EDE060",
"#X c #5B6886",
"$X c #596C98",
"%X c #4A628F",
"&X c #6B7692",
"*X c #6779A5",
"=X c #4F5B81",
"-X c #3E5889",
";X c #7C8290",
":X c #7485AD",
">X c #908E8C",
",X c #AAA587",
"<X c #B5AF93",
"1X c #8A96AD",
"2X c #B0B1AC",
"3X c #9EA297",
"4X c #CCB88A",
"5X c #D5B99D",
"6X c #D5CA92",
"7X c #E5D796",
"8X c #D1CEB1",
"9X c #EDD9AB",
"0X c #F5E9B4",
"qX c #F7E69A",
"wX c #92A7D0",
"eX c #A9BAD8",
"rX c #A6BEEB",
"tX c #A5BFF2",
"yX c #BAC5D6",
"uX c #ABC2ED",
"iX c #AAC2EA",
"pX c #B1C6ED",
"aX c #B5C9ED",
"sX c #BACAEA",
"dX c #AEC5F1",
"fX c #B4CBF2",
"gX c #BBCDF2",
"hX c #B1C7F1",
"jX c #BCD1F6",
"kX c #BFD0E4",
"lX c #DBDAC6",
"zX c #CAD3D0",
"xX c #E2DDCA",
"cX c #EAE4C8",
"vX c #F1EDD6",
"bX c #C3CDEB",
"nX c #C8D3EB",
"mX c #D3DCE9",
"MX c #C6CDF3",
"NX c #C4D3F4",
"BX c #CAD4F4",
"VX c #CCDAF5",
"CX c #CCDBF9",
"ZX c #D4DBF6",
"AX c #DCE4FB",
"SX c #D9E3F7",
"DX c #DCE4E9",
"FX c #E7EAE6",
"GX c #EBEDFD",
"HX c #E4E7F8",
"JX c #EDF1FA",
"KX c #FCFBFC",
"LX c #F5F5FA",
"PX c #F5F3E8",
"IX c #DEE2D1",
"UX c #B9C5B1",
/* pixels */
"sXsXBXZXMXbXMXMXMXbXdXtXdXuXrXuXrXrXrXrXuXuXrXuXuXrXrXrXiXiXuXuXuXrXuXuXuXuXiXrXuXuX1X:X2XyX&.1X#X&.1X..8 -XtXtXtXtXrXtXrXrXrXrX",
"MXZXAXZXMXMXMXMXMXMXpXrXuXrXpXpXpXdXdXuXpXuXuXrXrXpXpXpXuXiXiXuXuXuXuXiXuXiXuXiXrXpXrXyXyXkX&.:X#X:X1X..X.wXdXtXrXrXuXtXuXuXuXrX",
"HXHXHXAXZXZXBXBXMXMXuXuXdXdXMXMXgXaXhXpXuXuXdXuXhXgXgXgXaXpXiXiXuXuXiXiXuXuXuXrXiXiXeXiXyXyX#X$X%X$X$Xo.-XwXdXuXrXuXuXuXuXtXuXuX",
"GXLXGXHXHXZXZXMXMXMXMXuXpXgXMXBXNXbXgXaXaXhXpXfXMXMXBXMXgXgXkXaXiXiXdXdXdXdXuXuXiXiXiXwX1X1X*X%X%X$X$XX.-XtXdXdXuXuXuXuXuXuXuXuX",
"HXGXGXHXHXAXZXMXMXNXgXaXpXBXGXHXAXMXMXbXaXaXfXNXBXAXSXVXnXmXnXnXkXkXfXfXdXdXdXdXhXpXaX1X1XkX*X:X$X:X:XX.%XhXdXdXdXdXhXdXdXdXdXdX",
"ZXAXAXZXAXZXZXZXNXbXMXMXMXBXGXGXHXZXZXMXgXsXgXZXHXJXFXvXIXxXzX8XzXUXzXkXkXyXaXaXhXfXaXeXyXkX&X*X*X:X*XX.*XjXdXdXpXhXhXdXhXhXdXdX",
"MXZXBXZXZXZXMXMXBXBXZXAXZXAXLXLXGXHXZXZXBXnXVXDXLXPX0X7XOX}.}.}.}.}.).].UXzXkXaXaXaXgXyXyXyX;X$X%X*X$XX.:XjXdXfXfXfXfXfXfXfXfXhX",
"BXBXBXBXBXBXMXBXCXSXAXAXGXLXKXKXLXLXHXHXSXmXPXPX0X7XOX{.{.Z.V.m.m.V.V.!.Q.).UXzXbXaXjXyXwX&X&.$.=X%X&.o.wXjXfXfXfXfXfXjXfXfXfXfX",
"CXNXNXNXBXMXnXBXNXVXZXSXGXLXKXKXKXLXJXLXLXPXPXqXOX{.{.D.F.F.Z.Z.m.m.V.c.c.Q._.,XzXNXNX1X$.&XO...o...9 8 wXjXfXkXjXgXjXkXfXjXfXgX",
"CXCXCXVXVXmXzXzXmXmXmXZXGXKXKXKXKXKXPXKXPXcX].}. X XP.L.L.F.Z.m.m.m.m.t.z.g.p.d.^.UXDX:X$.&Xo.......9 8 :XCXjXjXkXjXjXjXjXjXjXjX",
"ZXCXCXZXmXxX)././.IXmXZXHXLXKXKXKXLXKXPX).<.Z =.k.x.Z.D.V.{.D.M.V.F.F.V.V.x.x.!._.^.2XyX&.9 9 9 9 9 8 ..fXNXjXNXjXjXNXjXNXjXkXjX",
"SXSXCXDXFX<XC H a.3XDXZXAXJXLXLXLXLXvXY.:.y.=.S S S L S S q.z.t.m.F.F.p.0.i.i.y.' T I #.3X&.&...p 9 :XkXCXVXkXzXzXVXVXNXNXjXjXjX",
"CXAXAXDXIXY.M d | | zXDXHXGXJXJXJXPX4Xu.c.x.h.p.0.9.S V S 0.w.w.c.m.t.L n n b > > > 7 7 R 2X;X....#XGXCXCXmXlX,X#.2XDXVXVXjXVXjX",
"AXAXAXFX6XD M v Z [ ^.FXDXGXGXGXHXcX}.{.L.Z.V.V.V.x.k.p.k.c.g.0.z.c.p.K n n N M M M M T 6 O.3X&.o.&.SXmXDXIX<XJ > W zXVXVXVXCXVX",
"HXAXAXFX4XD n b L s._ <XPXSXHXHXFX0X}.L.D.Z.m.V.V.x.B.x.x.h.g.w.c.t.f.K K ] [ ` D  .'  . .T %.#X9 &.SXVXIX8X_.v v I 3XDXmXCXCXCX",
"AXAXSXJX6XY.4.| 1.H _ W <XPXFXFXcX7X|.F.Z.V.n.h.p.0.0.p.0.0.0.w.t.c.9.D D [ [ ' D D D D  . .#.O...kXSXDX8X].d.> v I %.DXSXCXCXSX",
"AXHXSXFXlX/.| ! N N C { ! ^.IXvXqXOXD.V.V.0.=.S A n n P =.0.g.g.h.i.P B M M B T _ B _ D D ' ^.3X1XSXSXIX].}.<.d v T #.zXSXSXCXSX",
"JXJXJXJXPXcX5X,X/.6./ N T B #._.OX|.D.z.q.L H C v m v V =.w.h.w.p.L B M m m m h m M M F D  .a.<XUXJXUX .a.Q.| ! W { #.IXSXSXSXSX",
"6.>X3X3X2XUXlXFXvXPXPX<X/ B V c.oXL.M.w.a.W.].4X^.Y h >.l.z.z.g.q.P B M m 6 j 6 7 6 6 m B  .| ^.2X3XW I m > ; 7 I R >XDXSXSXAXAX",
"I R R R l R +.O.%.#.6.>X^.b -..XP.Z.M.9.T.0X9X,X5X<Xm Z l.C.C.n.g.H B T m 6 l 6.,X>X#.m I F | | W I W 6 6 / 6./.,X<XvXFXFXFXFXFX",
"R l l E +.@.+.#.+.E E E / N g.XXP.N.h.-.qX0XW # - <X/.d l.L.N.N.z.*.B T m I 3XUX^.3X8X#.> ! ' 8.F M m N ,./.(.9X0X9X6X6X6X4X].].",
"f g 5 g k U ^ U k g j k k s g.XXG.A.b.h.qX4X: 5 # ^.W.b C.P.G.N.V.p.P B > #.UXl o @ 3X2Xm B D a. .v 3.).(.E.(.(.E.(.[.E.!.(.E.'.",
"z k z j Y k Y k g 5 5 f g s V.U.H.G.L.h.h.].d : s ( A r. XA.S.N.m.V.p.L d W ^.3 3 & %.<XW B J a.8.F 8.E.(.E.E.E.R.R.R.l.j.j.j.j.",
"E ^ E k l l l Y k l j k > P XXI.H.G.G.D.h.i.2.A =.i.B..XL.S.S.S.Z.C.V.x.a.N W 7 : 5 6.+.M [ ] a.d.7 T Y.W.R.j.T.j.l.T.T.j.j.T.R.",
"Y Y l l I r j l j j l k s s.XXK.K.H.G.G.S.C.C.D. X.X XL.N.N.M.v.M.n.z.c.k.a.' C N B B M D ] u.d._.; o 6 @.W.W.R.T.R.E.R.R.j.R.R.",
"j 5 j l r r j g j Y l s d }.XXI.K.K.K.G.H.P.P.H.G.H.G.S.M.M.M.M.M.z.z.g.y.9.u.8.<.u.D D J u.f.f.Q.B o # - c } ,.,.1.:.Z :.Z :.Z ",
"r r y y 4 y 2 4 4 r r : b .XI.K.K.G.G.K.H.P.G.N.H.G.S.N.M.M.M.n.z.z.g.0.L L u.u.L a.d.f.y.y.y.f.k.8.o a o o o o : c A Z Z Z A Z ",
"3 3 1 < % 1 , & 3 3 1 ; S oXJ.I.K.K.H.G.H.G.t.D.L.C.N.N.n.n.n.z.h.g.y.9.L J K a.L L 9.f.p.y.f.y.d.d.# % O X % X # f 3.Y.5.~ Z ;.",
"% % X o X O $ o O X % o -.oXJ.I.K.K.H.L.D.v.q.C.l.l.B.B.B.c.h.l.g.=.=.L G D D [ [ F K ] 9.y.y.f.p._.7 o * % 1 % & # : ( 3.c j.j.",
"u 4 % $ O 3 3 % % O $ # c.XXK.I.K.K.G.S.m.*.*.0.s : d H -.-.=.2.H Z F F C B m v _ n ' K 9.9.y.p.p.Q.7   % , 3 % % & # # s s 1.R.",
"j j 1 & & r j , , % % # V.XXI.K.K.K.G.m.g.S r.q.A d # # > b b b v N M g ; # o : M v D K K 9.9.p.p.Q.m   , 3 2 % = % & , # : z ( ",
"5 j 5 3 5 j I 5 r - ; : V.U.J.J.K.G.D.n.*.*.D.|.{.`.x.1.H A b d h h v ; ; > > m M v F L K 9.y.f.p.Q.M   5 2 , % & = & 1 3 , # : ",
", j 5 r j f j f r 3 - d {.U.J.K.H.F.M.r.*.C. XG.D.Z.C.{.`.l.=.V v v N M T C ! _ _ n n D L ] y.y.p.Q.M o , , 3 % % , , r 3 , 5 5 ",
", j 5 5 l g I k f g : A |.I.J.H.L.Z.e.*.e. XH.G.H.G.G.S.v.h.z.x.i.=.P F D G ' J ] D F C G K 9.0.p.Q.T   , , 2 % , & , r 3 % 2 , ",
"# l j g U Y z z 5 k f C  XJ.K.H.A.M.r.*.L.K.K.K.K.H.H.A.v.z.z.V.n.V.c.i.K K K ] ] u.F n P L 9.y.p.Q.M o & 2 1 % 1 , , 3 1 % , j ",
"X j l j ^ ^ z U k U s n .XJ.K.A.N.t.*.b.P.K.K.K.K.H.H.A.v.M.m.M.M.N.D.V.y.9.u.9.9.] J n V D L y.y.d.M o , 1 , % 2 3 5 j 4 , y j ",
". r j g U / U U U ^ h ` .XJ.H.F.C.w.q.Z.U.K.K.P.K.K.P.G.m.m.m.m.M.F.D.V.p.y.f.9.u.u.] F V F L 9.y.d.m   a 4 1 1 4 3 r l 1 1 r l ",
". 4 Y z U ^ Q ^ Q } N A XXJ.H.F.m.r.r.P.P. XXX.X X|.|..X{.D.D.{.D.|.|.`.p.d.a.y.a.f.u.F V F G 9.y.d.M a 2 4 % 1 r y r l 1 O 3 i ",
"o % z z U / ^ ( ( ( : S XXH.H.Z.v.q.v.XX.XV.i.=.H H :.1.k.W.!.'.'.!.Q.1._ { [ | a.a.f.G n F G 9.y.d.m u u w a 1 r 4 r r q * $ q ",
"  $ Y z Q ( Q 3.@.: V @XU.K.A.F.n.q.L..X-.s s : : g s : : s d d d > : > : : > d v _ a.[ n F G =.f.d.m a u w q 1 u u r w q * q t ",
"q # z ^ ) ( 3.^ > ] @XXXI.H.A.F.e.r.@X-.: - # f x y y 5 ^ E z g T E / 5 x x 5 - # : C | C F L =.f.d. .; 0 t t a 1 u t e q 0 0 0 ",
"l 5 f ( ,.4.^ # D +XU.I.I.H.F.Z.e.n.{.d # # # $ O . . . = 3 y = l +.+.= $ = % & # - : ` C V G 9.u.f.| 7 2 t e 0 + q e q 0 0 e e ",
"( 4.4.E./.5.g b }.XXI.I.I.H.F.m.e.{.j.: # $ $ $ $ O . O . . . .   . . X $ $ O $ $ # # M _ P K 9.y.f.8.B a q p i + < q @ 0 e q t ",
"5.5.R.R.5.,.g Y.@XI.I.I.I.J.F.M.e.`.>.# $ $ $ $ . O O $ $ $ $ $ $ O O X O O $ $ O % # m _ P L K u.u.] _ a o 0 0 0 + e @ 0 w w i ",
",.5.R.T.1.) h ). XI.I.I.I.J.A.M.e.`.A - - . . O $ $ $ $ = = = = = $ O O O . O O < 5 # g D F K =.f.u.K 8.7 a @ e q * w * @ q e q ",
"2.R.R.1.5.g 4.+X XI.I.J.J.H.Z.M.w.'.b ; r . . O $ $ $ $ = = = = = = = $ $ O . . q 1 o g _ G K 9.f.9.J 8.7 a u e < O 0 * @ q e q ",
"2.R.5.~ ^ s ).+X XJ.J.I.J.H.Z.z.w.`.c g O.e   $ = = = = = = = = = = = $ $ $ . $ u * . g C D =.9.f.K J 8.m a t i 0 @ < w * q q q ",
"2.5.5.~ Q m 6XOXP.J.I.I.I.G.m.z.w.B.C s l l   O = = = = = = = = = = = = = $ . p R e o M _ J ] 9.u.J ] | 6 2 u i 0 * < 0 w q q q ",
"2.5.7.) ( Y 6XOX XI.J.J.I.F.Z.t.r.c.~ : : <X#.. 3 y y y f f x y y y = = = = . i R o ; W D J ] 9.K J K ] 7 a a i p o a a 0 0 w 0 ",
"5.1.Z ) U g 6XOX XI.J.I.J.H.F.t.r.l.>.s U 0X5Xk - y f y f f f f x f f f =   3 6.%.o 6 _ B J ] K D L ] ' m a a @ @ o 0 w w 0 0 a ",
"1.:.Z ,.( > 6X6X|.P.J.J.J.P.F.m.w.i.l.Z s [.9X].x f x x x x f f f x f f : E %.6.6.4 W W F ' J P D J ]  .6 a w p a t i 0 w q 0 0 ",
"7.;.5.,.Q ; <X7X{.P.P.J.J.I.P.Z.t.r.b.l.S A +X[.c = ) 4.5.7.7.7.) x f : ^.0X<XE % I  .T F ' J P D J ]  .I a o a @ @ 0 a @ 0 0 a ",
"2.;.,.7.^ - ,X9X}.|.H.J.J.J.J.F.v.e.b.b.b.-.B.'.[./.7.;.7.4.5.7.7.7.5.5X7X5X6.5 6 +.} C D D D J J J '  .I a 0 @ @ a @ X 0 q 0 a ",
":.7.;.7.U ; /.0X}.V. XJ.F.J.I.F.S.v.v.N.b.b.l.b.qX9X5X4X[.[.[.5X5X[.0X9X).! g I { } _ C D F K J J K  . .i a @ @ 0 R u + o q 0 * ",
":.1.) ) 3.f 6.cX6X}.|.H.H.H.H.H.S.N.b.S.b.b.b.b.'.[.[.qX9XcX9X9X5X/.4X4X@.> ! } |  .B _ F J K K J '  .#.e a p a   * i i q < e q ",
"Z 7.;.) z # %.lX8XOX|.P.F.H.H.H.S.N.S.S.S.v.n.b.b.2.A j.5.5.;.7.,.h f ) T / } }  .F B F J ] K ] J  . .&.a o @ a @ 0 X i e a t 0 ",
"~ 3.c f c c O.8XcX].c.|.H.H.H.H.G.N.M.S.Z.M.B.C.B.b.l.-.A b s d Q C ! ! / } } _ F F B F K ] K J  . .#.%.0 0 @ . X 0 + u < q q q ",
";.) ) ( ) +.E 2XcX8X~.}.|.H.H.H.G.S.M.M.F.v.t.n.B.E.b.!.!.j.4.@.} ~ ,.<.} _ _ C D F F ' ] ] ] '  .#.%.&.8 @ @ @ + i t @ e i u q ",
") h 4.c z z y >XcXcX6X~.`.D.F.H.G.S.S.v.M.F.z.q.-.j.j.j.j.R.W.W.4.} { { ! B C F B n D K K K K  .#.6.;XO.@ X   @ @ < < < + i u q ",
"^ ) ) c U ^ R +.8XcX8X].!.{.L.F.A.S.N.v.t.m.D.B.*.A b A A A A C C N N B B B _ C n F D J K '  . .%.;X;Xp @ @ * @ @ q X + + < q q ",
"z Q ) ^ s @.^ x >XcXcX8X).~.{.F.F.S.Z.M.v.t.z.`.B.2.V B N N N b N N B B B F B M n F J J J  .| #.>X>X%.9 @ q @ e < q w + < @ + q ",
": z Q U z ( z E W 2XcX9X4Xd.c.{.D.F.F.m.M.z.w.r.-.>.P C C T T ! C ! T F C B B C F D D J ' | #.6.;X;XO.0 * @ X * < * 0 q + @ a e ",
"f z f z ^ z @.f j %.8XcX9X)._.}.D.D.Z.m.z.z.z.w.-.S A b M M M T T B B M M B B F F D J ' |  .6.;X;X;Xp a @ * e a @ e u < 0 i X < ",
"z f - / z : - / O.R ^.lXlX8X).!.x.Z.Z.m.M.v.z.k.l.i.1._ v h m m m M M M B B F F P D J  .8.%.%.;X1X&.0 i @   w u + q i w q u * q "
};
