/* XPM */
static char *_517293586472[] = {
/* columns rows colors chars-per-pixel */
"64 64 256 2 ",
"   c #030302",
".  c #090602",
"X  c #0C0A05",
"o  c #0B0B09",
"O  c #120D05",
"+  c #120E09",
"@  c #1A0C07",
"#  c #0F1007",
"$  c #15120A",
"%  c #1B150B",
"&  c #181707",
"*  c #191914",
"=  c #150E11",
"-  c #241C0C",
";  c #261609",
":  c #241D11",
">  c #2F1205",
",  c #1B2307",
"<  c #1D2015",
"1  c #242C0A",
"2  c #28250A",
"3  c #2B330C",
"4  c #2A370D",
"5  c #35390E",
"6  c #2B2314",
"7  c #282719",
"8  c #342B1A",
"9  c #352A17",
"0  c #393617",
"q  c #32310E",
"w  c #333226",
"e  c #1F2024",
"r  c #44381B",
"t  c #443812",
"y  c #473B22",
"u  c #4F3B30",
"i  c #603115",
"p  c #3B4B15",
"a  c #374513",
"s  c #3F5219",
"d  c #327139",
"f  c #324D29",
"g  c #474916",
"h  c #534917",
"j  c #4B5C1B",
"k  c #475519",
"l  c #555818",
"z  c #43440E",
"x  c #6D561A",
"c  c #4D621E",
"v  c #47601E",
"b  c #53641D",
"n  c #5A661D",
"m  c #66691C",
"M  c #74751C",
"N  c #5C4B2B",
"B  c #544527",
"V  c #595628",
"C  c #574836",
"Z  c #4A4A32",
"A  c #685635",
"S  c #685630",
"D  c #556A21",
"F  c #5B6D21",
"G  c #556521",
"H  c #5D7223",
"J  c #577424",
"K  c #4B6B2E",
"L  c #636924",
"P  c #637423",
"I  c #6B7C25",
"U  c #677825",
"Y  c #777A25",
"T  c #77633A",
"R  c #6F6D32",
"E  c #595A4A",
"W  c #6C5C47",
"Q  c #7B7755",
"!  c #6F6B4B",
"~  c #7B7A66",
"^  c #527646",
"/  c #837532",
"(  c #827C1A",
")  c #836D44",
"_  c #887850",
"`  c #807F61",
"'  c #6C8328",
"]  c #778828",
"[  c #7B9429",
"{  c #788734",
"}  c #2A954B",
"|  c #269B4D",
" . c #2A9A4C",
".. c #25964A",
"X. c #329D4A",
"o. c #36944B",
"O. c #30964D",
"+. c #27A44E",
"@. c #2AA34E",
"#. c #26AB4F",
"$. c #2BAA4E",
"%. c #3CAC46",
"&. c #35A749",
"*. c #2BB34E",
"=. c #38B64B",
"-. c #29A550",
";. c #27AC51",
":. c #28AC51",
">. c #26A550",
",. c #26B353",
"<. c #29B453",
"1. c #27BA53",
"2. c #34B554",
"3. c #1FA44D",
"4. c #508D4C",
"5. c #739052",
"6. c #46B746",
"7. c #55BD4B",
"8. c #53B055",
"9. c #6FB056",
"0. c #6E9B63",
"q. c #37C34C",
"w. c #49C348",
"e. c #59C44D",
"r. c #5DC650",
"t. c #48C852",
"y. c #65CA53",
"u. c #6CCC56",
"i. c #66C854",
"p. c #73CE58",
"a. c #74CE58",
"s. c #7CD35C",
"d. c #76D45B",
"f. c #6BD157",
"g. c #7AD267",
"h. c #8B8B1F",
"j. c #858A25",
"k. c #83942B",
"l. c #88982A",
"z. c #959B28",
"x. c #8F9035",
"c. c #A19937",
"v. c #8BA22C",
"b. c #8AA72C",
"n. c #9CAB2B",
"m. c #95A62C",
"M. c #9CB32C",
"N. c #9AB82C",
"B. c #97A735",
"V. c #9CB235",
"C. c #8FA830",
"Z. c #A5A92A",
"A. c #A3B42B",
"S. c #A4BB2C",
"D. c #ACBC2C",
"F. c #A9B62A",
"G. c #B8BA2C",
"H. c #A6A836",
"J. c #A8B835",
"K. c #B4B834",
"L. c #AAC52C",
"P. c #B4C72D",
"I. c #AAC532",
"U. c #B4CB34",
"Y. c #BCCC3B",
"T. c #B8C736",
"R. c #AED734",
"E. c #BBD737",
"W. c #B1D22E",
"Q. c #B9E13C",
"!. c #9FC32D",
"~. c #C6C938",
"^. c #C5D83A",
"/. c #CAD134",
"(. c #C7E43C",
"). c #D3E53B",
"_. c #8B9647",
"`. c #91924F",
"'. c #94A951",
"]. c #ADB24B",
"[. c #999769",
"{. c #8D8B6F",
"}. c #A39871",
"|. c #87AD66",
" X c #A9A476",
".X c #AEB06F",
"XX c #AA9B5A",
"oX c #C6B952",
"OX c #82D65E",
"+X c #93C857",
"@X c #B9C746",
"#X c #BDD445",
"$X c #B8CA56",
"%X c #B0CC51",
"&X c #85DA61",
"*X c #8BDD63",
"=X c #85D562",
"-X c #93DB68",
";X c #96CC6B",
":X c #ADCD69",
">X c #94E269",
",X c #9CE56A",
"<X c #95E468",
"1X c #8DE065",
"2X c #A4EA6E",
"3X c #A4E66C",
"4X c #AAEE72",
"5X c #A6EC70",
"6X c #ADF172",
"7X c #B8F678",
"8X c #B9E56B",
"9X c #BEE341",
"0X c #C6CC47",
"qX c #C6D747",
"wX c #C9D956",
"eX c #D2DA59",
"rX c #D0D647",
"tX c #CCE442",
"yX c #C8E547",
"uX c #D4E946",
"iX c #D5E758",
"pX c #D9F258",
"aX c #D0EC4C",
"sX c #E2F655",
"dX c #C9DA65",
"fX c #D2D56E",
"gX c #D8E768",
"hX c #D8E777",
"jX c #CAF06D",
"kX c #E3F074",
"lX c #C5BD2A",
"zX c #B7B689",
"xX c #B2AF8C",
"cX c #9A9883",
"vX c #C4B98E",
"bX c #BFC1A3",
"nX c #C7C49A",
"mX c #D2D38D",
"MX c #D5EE89",
"NX c #E5EC8E",
"BX c #CBC9A5",
"VX c #D2CDA7",
"CX c #D6D3AC",
"ZX c #DAD8B7",
"AX c #CBC9B4",
"SX c #E1DCBC",
"DX c #E4E3B9",
"FX c #E1D38B",
"GX c #DDDDC2",
"HX c #E6E5C9",
"JX c #EDECD6",
"KX c #F4F3DA",
"LX c #F1EFD4",
"PX c #FAF9E8",
"IX c #FEFEF7",
"UX c #E0DFC2",
/* pixels */
"} } ..} } } }  . . ...| +...@. .-. .@.X.@.&.$.&.&.&.=.=.6.6.w.w.e.e.r.y.y.f.f.f.d.f.d.d.d.p.d.u.u.u.i.i.i.7.7.7.7.6.6.6.%.%.&.X.",
"} } ..} } } } } .. .4.8...|  .@. .X.@.$.$.&.2.%.=.6.=.6.=.w.w.t.e.y.y.f.f.f.d.d.d.s.s.s.s.s.s.s.s.d.p.p.u.i.i.7.7.7.6.6.%.%.%.%.",
"} } } } | } } ..o.`.x.XX9...@.@.@.&.-.&.&.&.=.=.=.6.w.w.t.t.t.y.f.f.d.d.d.d.s.&X*X*X*X*X*X&X&X&X=X&Xs.s.a.p.u.i.i.7.7.6.6.%.%.%.",
"} } } } } | ..X.].c.0 h $X&. .@.$.$.$.&.*.=.=.=.w.6.q.t.f.=X-X;X-X:X:X:X3X,X<X1X1X1X1X>X1X<X<X1X*X*X&X=XOXOXp.p.u.i.9.e.7.6.%.6.",
"} ..} | O.| | '.].m o q rX7.@.$.$.&.*.*.=.=.q.q.q.w.g.;X.X$X].V.].I.J.@X$XdXmXmX4X,X,X>X,X,X,X,X<X>X1X*X*XOXOXs.a.p.i.r.7.7.6.6.",
"} } | } | | 4.oXH.g   1 0X|.>.$.$.*.*.=.=.q.=.q.g.;X+X].B.C.M.M.S.S.D.T.qXdX8XMXmXjX5X2X2X2X2X2X3X,X,X<X>X1X*X&XOXa.p.i.7.7.7.6.",
"} | } } } >.4.].].l 7 l B.].%.:.*.*.1.=.=.q.t.;X.XV.C.C.C.M.N.L.L.P.U.^.eXgXhXMXhXwXwX8X5X4X4X2X2X2X3X3X,X>X-X*X+Xs.a.u.u.7.7.7.",
"} } | | |  ...d R R h 1 q R 9.;.=.1.=.=.q.t.|._.P m ] z.S.L.S.L.P.W.0XwXgXhXNXFXhXwXqXwX8X6X6X6X4X2X2X2X,X,X>X-X*XOX+Xa.a.i.7.7.",
"| } | | | +.@.>.} d f 2 % 4 _.8.1.=.q.q.t.0.R 5 q q t m k.D.U.P.U.qXwXdXhXMXNXNXMXeXrX^.qX8X7X6X6X4X4X4X3X3X3X>X-X&XOXOXa.i.9.e.",
"O.| | |  . .| -.+.#.#.} v 0 Z `.8.q.q.q.|.! 0 5 z l g t t m @XiXqXqXdXgXhXhXhXMXhXiX).^.^.qX8X7X7X7X6X4X5X5X3X3X,X-X*XOXOXp.y.e.",
"} +.| | >.+.@.+.+.+.#.,.1.d 0 V `.9.9.9.5.k c U ] [ ] ' l t l ].kXkXhXgXgXhXhXhXhXdXqXE.E.^.wX7X7X7X7X6X6X5X2X3X,X-X*XOXOXa.u.y.",
"| | | +. .-.#.#.#.#.#.*.,.q.d 0 j R _.R z k H ' ] [ k.v.[ m t l ].kXkXkXgXgXeXdXjXwXwXqXE.W.yXwX7XjX7X7X7X6X4X5X,X,X<X*XOXs.a.i.",
"| |  .-.-.-.>.>.;.;.,.,.,.1.2.Z p G c a 4 p b n F U ] [ [ ] c 5 j.iXgXhXkXeXwXeXeXwX0X#X@XE.^.wXjX7X7X7X7X6X6X4X3X,X,X*XOXOXa.u.",
"|  . .-.-.>.>.;.;.;.,.,.<.1.q.4.R F g 3 , a g k j n L P P U n a x ~.qXwXgXrXwXiXwXwXwX$X].B.x.T.jXMX6XMX7X6X8X4X3X3X<X*XOXOXa.u.",
" . .-.-.-.-.:.;.;.,.1.1.1.1.q.5.{ b a & & 1 2 5 n ' ] ' n k 4 4 l A.K.@X0X@X0XK.( L h h h h h j.$X7X7X7X7X7X7X6X4X3X,X*X;X=Xs.p.",
"-. .-.>.-.-.;.:.,.,.1.1.q.1.9._.m m z , 1 6 W }.A r _ j.] a & & a j.m.J.I.T.n.h g l h n m m l l x.7XMX7X7X7X7X6X2X4X-X.XfX0XOXu.",
"| >.-.-.-.:.:.:.,.,.,.1.1.2.`.Y L Y m z 5 B .X) > > W AXx.l O # 2 m z.Z.F.z.' I ' [ k.v.b.b.v.[ / 8XMX7X7X7X6X6X7X;X_.].c.oX%Xu.",
" .-.>.>.;.>.;.,.,.1.1.,.2.|._.I j.m.A.k.k z T x i > ! IXvXM & & 3 m z.Z.z.] ' I U I ' [ l.v.b.M.'.$XjX7X7XMX7X4X|.V c.x.Y H.$Xu.",
" .>.-.:.>.;.:.,.1.1.1.1.g.`.{ v.H.K.Y.0XA.m l ( z.( .XfXXXt O z M z.Z.Z.z.j.I n m ] k.[ k.k.l.C.!.%XjXMX7X8X:X_.g m z.U Y ].$Xi.",
">.-.-.>.#.#.,.,.1.1.1.8.[.{ v.A.T.Y.^.qXrX~.n.] ( h.z.z.( h M Z.K.@XdXT.z.l.M m L l m j.l.k.] l.C.%XdX3X].'._.R h L c.z.x.].$Xi.",
"-.@.+.@.#.,.,.,.,.1.1.9._.[ z.A.K.Y.^.qXqXY.T.J.M.m.v.B.m.K.T.D.I.$XMX0XZ.j.h ) u > > cX[.x U ] C.I.U.].H.'._.x.R j V B.oXeX+Xu.",
"@.@.#.#.#.#.,.,.,.1.8._.' Y [ m.J.I.U.~.#XJ.[ n m j.z.l.z.J.0XoX0XwXwXE.L.z.q T i 9 > cXIX{.M [ [ I.Y.'.'.:X3X2X-X+X9.5.'.+Xp.u.",
">.-.#.#.:.:.#.<.,.1.'.5.H L P I l.M.S.D.N.m 2 1 M j.j.Y z.K.0XeXfXhXNXgXU.U.m > ( / W SXSXvXc.z.n.qX#X3X6X7X6X5X5X,X,X<X=Xp.u.i.",
"+.-.@.#.#.,.,.<.1.9._.I k k a a g b ] ] j & O q z l h l j.H.lX0XeXeXfXhXgXqX~.( x ( Z.c.Z.Z.G.D.T.aXjX7X7X4X5X5X,X>X*X=Xs.p.i.7.",
"| -.#.#.;.,.,.,.<.'.x.L m U U p 1 3 3 1 2 1 , & & & 5 h M Z.G.lX0X0XrXeXfXrX~.qXJ.j.h.z.F.G.K.0X).sX7X6X6X5X2X2X,X>X*Xs.p.u.i.7.",
"-.+.-.+.>.;.,.,.8.'.] ] [ v.l.l l n l n L G z 2 &   . 1 x z.G.G.lXlX~.0X0X~.^.0XqXqX0X$X$X0XgXyX).sXjX5X5X2X2X,X1X*X=Xa.p.i.7.6.",
"-.>.#.@.>.;.1.1.9.x.Y k.l.z.I m h q k U j.z.j.Y m z , X & h h.Z.lXlXlX/./.P.^.~.@XwXgXkXkXkXsXaX).pXjX5X2X,X<X1X*XOXs.p.i.r.7.6.",
"@.+.>.,.2.X.O.^ _.{ I [ k.k.n I n q q j ] l.m.Z.Z.n.j.M h q 2 t x ( z.h.h.Y n.D.j.0XgXkXNXNXsXpXuXsXpX2X<X<X1X1X=Xd.p.i.9.7.6.6.",
"+.;.@.d f 8 * w I I P P I F D F F ' l 1 n [ k.B.V.J.D.T.~.Z.( m h m M m z ; l z.m K.rXgXsXsXsXsXsXsXpX<X1X1X&Xs.a.a.i.e.w.6.6.6.",
"-.d *       7 J H H H F c v J F P H l.x 1 n l.C.V.H.Y.qX~.~.P.G.F.G.~.K.K.K.Z.J.P l.Y.eXiXsX).uXsXsXjXs.1XOXd.d.u.i.e.7.6.6.%.%.",
"w +   o * a D c D H P P F c J H m b H l.Y 0 l m.V.T.rXrX0XY.T.F.F.T.~.rXrXrX/.(.V.L v.T.qXuX).uXsXsX6Xd.s.d.u.u.y.e.7.6.6.6.%.&.",
".   o 1 k j v v c J H U G c J H n v c F k.c.S k k.@X0X0X~.~.@XI.T.eXwXiXiXrX).).).n.L z.D.~.).).).pX,Xd.a.u.y.e.e.6.6.%.X.%.%.X.",
"  . & a k k c c b P H H n J J H D c c b H ' ].`.C R ].~.qXY.T.T.wXdXgXiXiXaXuXrX^./.m.n m.L.W.^.).pX&Xy.y.r.e.w.6.6.%.%.%.%.X.X.",
"  X 4 k j k c c v n H U c D J J F b b b P I ' B.oXXX! M z.].wXiXgXgXiXeXwXqXwXqXqXY.(.h.] F.W.^.).pXd.t.w.w.w.6.%.%.%.%.X.&.X.X.",
". # 3 k v v c b v c F H n n J J G c b b b U ' ' [ ].mXxXQ N L / B.@X0X0X#X#X#XY.Y./.^./.m.S.W.E.(.eX9.w.w.6.%.%.%.%.&.X.X.X.X.} ",
"# & 3 k v c j v s v P H H J J D j j b b b H ' [ [ [ [ ].fXFXvX X[._ x.x.c.H.c.H.z.z.Y.).P.P.E./.uX%Xu 5.=.%.%.%.&.&.X.X.X.X.} } ",
"# * 1 s k l c c v s J P P H n D j k j j G F P [ k.v.[ [ [ C.$XmXDXNXFXFXfXfXfXfXU.W./.(.^.E.(.uXsX@XE W 5.*.&.&.&.X. . .} } } } ",
"# # , 5 k j k j s s c P H D n J b j k c G J I ] [ v.b.C.N.b.b.N.N.J.@X%X$XY.~.~.(.).(.yXyXuXuXuX(.Q.9.Q Z ! } @.X.O. .....} } } ",
"o # o 1 a k k s k s s J J n P P F G G j D J U ] [ b.[ C.b.C.C.N.N.N.!.L.L.L.W.^.).Q.Q.Q.yXyX(.(.(.yXR.{.w W W d } ......o.O...} ",
"  # # # 3 p k s s p a s D n H P P P I H P ' ' [ [ [ C.[ b.b.M.N.N.S.S.L.L.P.W.W.W.Q.Q.yXQ.Q.(.E.Q.(.(.'.E O C u K 4.~ ! W ! J o.",
"  o * o , 4 p k p p p 1 s c F P P ' ] [ [ v.v.l.l.b.v.v.b.m.M.M.N.S.S.S.L.L.L.W.W.R.Q.Q.yXQ.E.W.Q.yXaX$XZ ; N A u u C C w u ) 4.",
"    $ # # , 5 p s a p a a s c J F P { v.C.N.A.S.S.A.n.n.n.b.M.N.N.N.S.N.!.L.L.R.R.Q.Q.Q.^.E.R.E.(.9XpX%Xw - N T w * 6 8 y w ) 0.",
"    X = o & 1 4 a a p 4 , 4 s v c F ] v.n.N.P.T./.P.P.F.L.S.L.D.S.N.N.L.L.L.R.R.Q.E.Q.(.R.R.W.(.(.aXpX%Xw 6 S _ A % 8 8 r y W ! ",
"      < * # , 1 a a p a a , 4 v k c H [ v.M.D./.T.T.U.T.T./.W.E.U.U.L.W.E.^.E.(.(.(.^.W.L.L.(.qXaXkXhX:Xw 6 y r 8 % 8 r u u 9 5.",
"  .   $ 7 * # , 1 a a a a 4 , 4 p s c ' k.v.N.I.U.T.U.Y.E.^.qXyXyXyX(.tXrX(.tXtX(.E.E.L.!.R.tXuXpXkXdXcX= % S 9 9 A y N N y 9 Q ",
". 9 X . e 7 * # , 4 a a a 5 3 , 1 a a b ' k.m.Z.K.D.I.I.U.E.qXeXuXyXyXuX(.(.).(.^.W.I.N.W.(.aXpXjXgXzXE ; y 0 : % w r r N 9 0  X",
". @ q 9 8 w 7 # # , 3 4 a a 5 4 , , 1 p n ] l.m.A.A.A.S.D.I.#XE.qXyX^.^.^.^.E.W.L.N.N.W.^.aXpXpX$X.X0.6 y 0 % u _ N % 8 N 6 : AX",
"X X t y ` 5.Q E < & , 3 4 4 4 4 1 , , , 4 j I k.m.n.n.A.F.D.D.U.U.U.W.E.W.L.!.C.N.N.L.E.yXpXiX]..XxXZ X 9 N : : A / 9 9 A 6 - AX",
". O X 6 _  X X[.Q A V p a a 5 3 1 , , & & # , 4 v P ] [ n.A.A.I.I.I.L.M.M.C.C.C.L.I.#XaXpXwX'.xXAXZ X r . $ : 0 : T ) 9 A ; {.IX",
"  . & ; S [.[.}.[.[.'._.z.l.] ' I m n n b c l k k k c c J I ] [ b.[ v.b.m.N.!.L.R.9XaXyXwX'.zXbX! 0 % 7 : 6 8 B w A y r N 9 HXIX",
". & X X ; ! zXzXzX X X[.B.M.A.A.n.n.M.A.M.n.n.n.n.m.m.z.j.[ l.l.b.C.n.S.S.L.P.E.wXwX@X'. XxXxXcX* x 8 . o 6 6 B N 0 T ) B W IXIX",
". & O - & : [.zXzX.X X X_.H.A.A.A.A.A.A.A.A.n.n.n.Z.n.n.A.A.A.A.A.S.L.P.U.U.@X#X#XV.'.nXbXnX` r 2 6 6 6 9 6 r 6 N : A _ B cXIXJX",
".   - O O % A zXzX X X[.{.`.].F.D.F.D.F.S.F.F.A.F.A.F.A.F.D.D.L.Y.Y.0X0XT.V.'.]..XxXHXGXCX5.y X h - 6 = 9 = @ N O u 9 y A JXPXJX",
"O O   . O - r _ nX.XzXzX.X[.[.c.J.I.D.L.D.D.S.S.F.F.F.D.T.Y.~.@X0X#X@XI P `.[.vXHXPXIXGX~ ; S 0 . 7 / : @ N w y 9 y 6 r ! PXKXPX",
"O % O   . . & r Q zXnXnXnXzX}.[.[.`.J.D.L.P.D.D.F.F.D.D.D.D.F.n.B.R 3 R ! zXBXJXPXIXAXf t - B % - + y : : A T 6 N T = u }.PXKXPX",
"  .         O 6 6 N zXBXnXnXCXzX}.`. X.X].H.B.m.m.Z.A.n.z.x.] g ! {.! zXnXZXLXPXPXAXC X V 9 + + N : = : 6 B 6 y ) 9 6 r AXKXJXPX",
"  . $ . .   X O 8 y u  XVXvXCXvXnXzXnXvXzXxX[.[.` `.`.`.`.Q Q `.zXHXLXLXLXLXKXKX}.y & o y * 9 + 9 ; N N % r y : r . u A HXJXJXPX",
"O O @ + % @ r 9 + % r r }.CXCXvXCXCXnXnXnXnXnXnXzXvXzXzXxXvXZXSXDXLXKXIXKXKXAXZ 2 O 2 g .   8 $ . y ) N : $ : 8 % * % {.JXHXJXJX",
"O . . + $ 6 % X @ 9 + 6 9  XSXBXCXVXVXCXZXVXVXZXZXZXVXVXVXHXLXPXKXIXIXPXGXQ h - t r O T % $ + B : ) A N 6 6 9 + : : : xXUXHXJXJX",
"%   @ @ O . o   + %   $ @ N nXVXCXCXZXZXCXnXCXDXHXCXDXCXKXPXIXKXGXBXxXE w . h B @ h & 6 - N 6 T % A / T y y 8 % N + C GXGXHXJXJX",
"% . $ % +   + o .     . . ; xXDXZXUXHXSXDXZXGXHXHXSXLXSXUXAXxX` W A A ; 0 2 6 N X ; + . + 7 . 6 . : y 9 6 B % X 0 . ~ UXGXHXHXJX",
". & . $ - + o .             C xXVXHXHXZXHXLXJXJXLXDXBX{.W ) N 8 N 7 8 + ; % $ X ; / 0 % + + 8 X S - : $ . % + = o q bXAXGXGXGXHX",
". $ ; . . o X % $ : o X         7 C E e E Q ~ cXcX{.Z 6 - : % 7 : X ; 0 @ @ q O X y r + - + % X y : r 9 : % : 9 . ` AXZXGXZXGXHX",
". + X . @ : + : % 7 7 o $ Z *                 o o e e e w -   y ; + - N $ 0 6 @ $   O 8 + $ * ; r + . 7 y : % 9 : xXzXZXGXGXGXGX"
};
