/* XPM */
static char *_517298880146[] = {
/* columns rows colors chars-per-pixel */
"64 64 91 1 ",
"  c #00070D",
". c #01080E",
"X c #010712",
"o c #010C14",
"O c #010E19",
"+ c #021017",
"@ c #01111C",
"# c #09141D",
"$ c #000E22",
"% c #011523",
"& c #0A1722",
"* c #021926",
"= c #091823",
"- c #011629",
"; c #021A2C",
": c #091D2C",
"> c #111F2A",
", c #021732",
"< c #021D32",
"1 c #091F31",
"2 c #011E3A",
"3 c #03202D",
"4 c #0B202E",
"5 c #11212B",
"6 c #022134",
"7 c #0A2333",
"8 c #0C2836",
"9 c #02233B",
"0 c #0B263A",
"q c #032B3B",
"w c #0C293C",
"e c #132632",
"r c #162832",
"t c #122B3B",
"y c #1C2E3B",
"u c #01313F",
"i c #21333F",
"p c #022541",
"a c #032B45",
"s c #0C2B42",
"d c #022C4B",
"f c #122E41",
"g c #023747",
"h c #0D3046",
"j c #04324F",
"k c #0C324C",
"l c #143245",
"z c #1C3545",
"x c #12354B",
"c c #1C3B4D",
"v c #022F50",
"b c #043354",
"n c #0D3952",
"m c #043659",
"M c #05395C",
"N c #133852",
"B c #1C3C51",
"V c #203644",
"C c #223C4B",
"Z c #043D63",
"A c #014052",
"S c #144059",
"D c #224659",
"F c #2D4A5A",
"G c #0A4267",
"H c #014F65",
"J c #04486F",
"K c #164360",
"L c #1C4762",
"P c #19456A",
"I c #084E7F",
"U c #045074",
"Y c #234A64",
"T c #2E4F62",
"R c #2D5265",
"E c #2D556E",
"W c #2F586E",
"Q c #33586B",
"! c #2A5870",
"~ c #3C6173",
"^ c #2B5E8D",
"/ c #08638F",
"( c #3C6A82",
") c #3E6D8B",
"_ c #46758F",
"` c #4C7E99",
"' c #5D8396",
"] c #658B9E",
"[ c #4588A3",
"{ c #648AA1",
"} c #6FA1B8",
/* pixels */
"@@@@+@+++@OOoOOoo+oooooX>5.#oo....o o   . . ...... .            ",
"@@@@@@+@++OOOOoOOo+ooOoo#&..o.o.oo . ooo#..  ......O#    .      ",
"@@@@@++@@@OoOoOoOOOoXooOooooooo...ooXo# . .. ...   +..   .      ",
"@@@@@@@+O+OOOOO+++o++oooo.oo.oooo.....  ..X.XX..                ",
"4@@%@@@@@&OOOooOOo+o+ooOooo+#  oXoX.X.o.:%X.X.X.X ..            ",
"@@@@@%@+@@+OOO+o+oOoOoooooX+#Xooo.XoXooo=&.......X.. .          ",
"@@%@@$@+++@OOOOOOOO++oooooooXX+oo.o.##X...X..X..   ... .        ",
"@@@@%O@@+@+OOOOooOOo++oOoo#o+#>ooo.ooo.o..X...#..o o  .         ",
"@%%@%O%@+@@+OOOOo+@@+O+o++o++#5oooo. oo.oo...o...   o>    .     ",
"%@O%O%O@@@+@+OOOO&7%oO+OOoO+Oo.oooooo .oo.o.......  .o..  ..    ",
"@@@O%OO@@+@++@OO@@O=eo+OoOOooo+.oooo.oo.#o.o..o...  .     ..    ",
"%@$%O%%O@++@@+OOO@@@#O+O+ooO+oooooo.o.oX.o....... #o  .         ",
"@@%@%O%%@@+@@@OOO@@OOOOOOOOooOoOoooo.o  .oo.....oX. ..          ",
":@%@O%OO@@@@@@@OO@@@@O++o+O+O@..#oooo >r oo.o... X.. .     .    ",
":O@@@@@@@@@@@@@@$@@+#@+OoOo++.rr oo#o ri o...o...... ..   .. .  ",
"%%@%@%--@%%@@@@@@O%-O@@+OOO+@Xi5.ooooo  ..ooo.o....o..........  ",
"%%@@%O''%@%O%-j-@%-::%OO@OOOo+.X+oo+ooo.o.o.o.o..#  ...o oo O2X.",
"@$%@%${{$@%%@-g;<%%@l&O:@@O+O+O+ooooo+.+oo.o.o.o.#  ... . ..OO. ",
"-%@@@%--%%%%@%#6b-@%OO@*@++O+OOO++o+oo+..++.o.o.XX . ...ooX.o.O;",
"QRo%@%%%@%%%%%%%--%%-%OO@O@@O@Oo#+o+oo.++..o+...o.. .oo.  o..ooo",
"71%O%%%%@%%%%**%%&-O%otFX@@@@OOO+ooO+oo...+.. ..Xo.o.oo.o..oXXoX",
"%O%%%%%%%%%**@*%%$%%%OtCO%+#@O%O+O+ooooo+..+#+.+..o.o..oooo..XXX",
"%-@%%=%O%%%%*-**-%$%%%OO@@@@@O@O@+o+oooooo+.#+.o..ooo.oo.+X@@.Xo",
"%%%%%%-1%%*%*%%*%%%%$%%%%@@@@OOOO+oOoOo9@.o++.+.#oooooo.+oo@ooXo",
"%%%%%%*:%%**;%**;7%%%%@@<%@@@O%O+O+OO+O9%Xoo+++ooOoo+#oo.+oooo.X",
"%%%@@&%%%%***;;@8w%%%&%%-@@@$;-O@+oOo+OooOooooooooOoooooooooo.oX",
"%%%%%%%%%%**;*;;*%*%%%%@@@@@%-%@@++OO+o+oooooOoOooXo+Xoo++.oXoXo",
"%%%%%%-*%--**;;;-l7%-**%%%%@O%O@@@@@++OOOOoO+OOo##++X+Oooo+oOoXo",
"%%-%%%%%%%-*;;;*****--*-%%%@@%@O%@O@@@+XoOoOO@@#ooOooo5ooO+oXooX",
"%%%%%&%%*%**-;,;;***9b*%%:3@@@%:@+z%+++%:OOO++++OOOOOo+Oooo+OXoo",
"%%%%%%%;;*-%-;;;;*99pZ,%%%*%%@:z%:r%+@@wVo+OOO+OOOO#Oooo+++.oXXo",
"%$-:%%%**:%%--,,;;qa-,w%%%%%%@@%#-O@@@@-o@+O@&OO+Ooo+o+OoO.q%Ooo",
"%%%-%%%%%%--*;;<;;;;:<;-**@;8$%@@%-@@@@+OO@@O@OOO++OOooo=OXu;Ooo",
"%%%%%%%%%-%%-*;;<;;;,;-**%;%%%$%%%%@@%$%%O%O%O=#OO@OOOOO&oOXoooo",
"%%%%*%%%%*%%-*,;6;;;;;;***%**%%%$%%%%@@@O-:OO@%@O@OOOOOXyV.O+OOo",
"%%*%%%%t*%%--;<*;;6;;,;;**;%%-%-%%%%%@%%%%%@$@O$#O@OOOOo1>oOooXO",
"**%-%%%;**%%6b6*;<;6;;<;**;<***b6%-@@@%%%Op<O%$OO@@+@o==. ~S +oO",
"%*O&%%%%%*%-;a<*;3;;3,;,;;<0*;,9*%%%-%%#%O9;O@@%@@@@OX:=X+=*OoOo",
"%*s--%%*%%%**%-*;;3;;6<<;<;;9d<-*-*:%%%%%%OX%&@@@#@+OOOOOOXOO+oo",
"%*_t@%t8@-%%%%%*;;;63;,<;;,*b/9;---*%%%%%O:(p-%@@@+@@OOOOO++oOoO",
"%-&*--7*%%**%*-%%**<66<<;;sx6a6*-9<-%*%%%%%Lm%%-@@@#&O+Oo+OOo+Oo",
"%%%%%Md%*@w*%%;:%3*-sw;<<,ks;6;;O`EO*%%%%%&O%@O:@@@@@+OOOOOOOooO",
"%%%*&Gd%%*-@:8:1*7***;<,<;s,;;;9da<---%%%%%%$%%%%@@@@@OO&#oOoOo+",
"%%%%-;%%%%%-%%<:46*-;;;;<;,2<<;9I<--***%%%%@%%OO@@@@OOO+@#OO+OoO",
"-%-%%@%%%%%%-$WlOY3@***;;%P^-<;<<<;***-*-%$%@@%%@@@@OOOOoOO@+ooO",
":%%Otl@%%%@w:%p6%%**-*--*%Y)-;;;<;*;**-*%%%%%:%%@@@@@O@O@O+oO@+@",
"%%%%:*%%%%%:%O99:O74%*---*--;;;<-;;,;*---%@%%:O%@@@@@@+O+OOOO3+@",
"%-%%%%%%%%%%$%@%%%%%%%%@-*;*;;;<,,;;****%-%@%@%%9%@@O@@@+oOoOXOo",
"%%-@%%%%%%%@%@%%%$%&%%7:%--:;;;;,;;-7;;*---:%%@-A;@@@@$@OOOOoOoo",
"*%*%%%%%%&%%%%@%%%%@%%71%-%-;;6;,,99x6**%%:t@%%-;-@@@O@@ooOOOOOX",
"%-%*%%%%%%%%%%%@%O%%@@*@%-**;<3<<;ad**;**-%O%%%@%%%@O$O@+@OO@oOo",
"***%%&%%@%@%@%%@OD:@%@4l$-*;;<3<<<9<<;;;*---%-%%%%%@%O%@@+OOOOOO",
"***%%%-%%@%%@%@@Ot%@@%-:-%-;<<<<,<<<<<7**;-*-%&%%%@*@@@@@@+@XoOO",
"%%%*3%%%@%%%%%@@%O$@@@%%--*-<;3;<<<<<;;;*;-%%%%-%%@%%%@@@@@ogqX@",
"%**%8;&%%%@%%$@%O@%O%%ww%--*<666<<2,<<;<;*-f0%*:%@%@@%@OO@@Oq3o+",
"![-%%%%%&%%-*%%@%O%@%OnN$-%*;<6<22<<<;<;<<,f8%---%%%%*OcRX@@OO@O",
"qj%%%-%%*;@aM%@%@$@@%%%@-:;;;<dU9<<2<<<<;ap%----*%%:%%@:4@@@@@OO",
"%@;%&%%%%%%;6@@OO%-*%%%%%;;*;,dJ922<<1%;<ps-%---*%4;%%%@@@@&%%@O",
"%:%%%%<6*%%%%%O-7O9M@%&%--*<666<<922<p(h*sh-f-:-*--%%%%%%%@-%%%O",
"%%-*%%bm%@&%@%O1~@*;%%%-%-*<<<66<2292p}K;,-<pZv%77%-%%%%%%%$o%%O",
"**@;@:w,%%-:@%@%%@@@%%-%**<<2996<22996-<<<,0-Md-;**--%%%-%&wm%@@",
"%;**%%:%-@:t@-%@@%%%%@:f%<k622ka92p9969<xq;;;-;;;7*8%%%%%%%*H%%@",
"*;%*%c;%%%%%%%%%%@%%%;l1-<99ppkdpp999696Sa;,,,--0D%3--%-%%%%O%-%",
"*%**%B7@%%&%%-%@%%*%-*-00;Lkpvvdpdp99999,<<<<;;;-%*6*--%%&%%--9;"
};
