/* XPM */
static char *fa8851dc90bb48d0a9dab2237a646396[] = {
/* columns rows colors chars-per-pixel */
"64 64 256 2 ",
"   c #0E1C09",
".  c #101C09",
"X  c #0F220C",
"o  c #14240C",
"O  c #1A260B",
"+  c #162C0C",
"@  c #1D2D0C",
"#  c #1D330D",
"$  c #1E380C",
"%  c #16300A",
"&  c #1D2B12",
"*  c #152611",
"=  c #1F3412",
"-  c #1E3A1A",
";  c #202E0E",
":  c #21330E",
">  c #223B0E",
",  c #212E13",
"<  c #243413",
"1  c #293615",
"2  c #253B13",
"3  c #293B15",
"4  c #253319",
"5  c #2A361B",
"6  c #233B1B",
"7  c #2C3C1B",
"8  c #313D1D",
"9  c #2D3B21",
"0  c #2B3721",
"q  c #323D23",
"w  c #373F2A",
"e  c #24470C",
"r  c #254213",
"t  c #2A4314",
"y  c #2B4B14",
"u  c #24421B",
"i  c #2D431C",
"p  c #2C4A1B",
"a  c #274C18",
"s  c #304216",
"d  c #32431D",
"f  c #334B1D",
"g  c #394A1E",
"h  c #3B471F",
"j  c #2E5215",
"k  c #2E5118",
"l  c #2F5D12",
"z  c #345A14",
"x  c #35531B",
"c  c #39551D",
"v  c #345919",
"b  c #3A5D1C",
"n  c #355416",
"m  c #3D641C",
"M  c #3A6717",
"N  c #1F4725",
"B  c #2C4421",
"V  c #2C4B23",
"C  c #264B28",
"Z  c #344423",
"A  c #394523",
"S  c #354B23",
"D  c #3A4B24",
"F  c #354329",
"G  c #3B462C",
"H  c #364B2A",
"J  c #3C4B2C",
"K  c #29552A",
"L  c #345221",
"P  c #3A5224",
"I  c #3D5923",
"U  c #365229",
"Y  c #3D532B",
"T  c #3A5A28",
"R  c #354432",
"E  c #3B4733",
"W  c #3E4B32",
"Q  c #3D4A3B",
"!  c #295B38",
"~  c #3D5231",
"^  c #3E5A30",
"/  c #3F6721",
"(  c #414D2C",
")  c #435C25",
"_  c #42532D",
"`  c #435C2D",
"'  c #445628",
"]  c #414D34",
"[  c #444D3A",
"{  c #4B4F3E",
"}  c #445233",
"|  c #495535",
" . c #455B32",
".. c #4A5B34",
"X. c #46523A",
"o. c #4A543C",
"O. c #4C5A3B",
"+. c #465A3A",
"@. c #525D3D",
"#. c #50553F",
"$. c #416323",
"%. c #46632D",
"&. c #49662E",
"*. c #4A6C2E",
"=. c #50702F",
"-. c #476132",
";. c #4B6333",
":. c #4C6A33",
">. c #4D633B",
",. c #52633C",
"<. c #536A38",
"1. c #4E7134",
"2. c #4C713D",
"3. c #527335",
"4. c #54753D",
"5. c #557A3B",
"6. c #5C783E",
"7. c #506E2E",
"8. c #3B4B40",
"9. c #4C5542",
"0. c #4D5B42",
"q. c #4E5B4A",
"w. c #535D43",
"e. c #535C4A",
"r. c #585C47",
"t. c #4F6146",
"y. c #546243",
"u. c #596445",
"i. c #5A6B45",
"p. c #55634A",
"a. c #59654B",
"s. c #566A4C",
"d. c #5C6B4D",
"f. c #566F47",
"g. c #577242",
"h. c #5A7246",
"j. c #5C7B44",
"k. c #5C764C",
"l. c #5C6C53",
"z. c #5A6853",
"x. c #5E7154",
"c. c #5E725A",
"v. c #616C4E",
"b. c #60654E",
"n. c #62724E",
"m. c #647A4C",
"M. c #626C54",
"N. c #646E59",
"B. c #637354",
"V. c #65745B",
"C. c #6A755C",
"Z. c #6B7A5E",
"A. c #677957",
"S. c #707B5D",
"D. c #5E7660",
"F. c #647562",
"G. c #6A7663",
"H. c #637965",
"J. c #6C7B64",
"K. c #667B69",
"L. c #6C7C6A",
"P. c #687769",
"I. c #717B65",
"U. c #727D6B",
"Y. c #787F69",
"T. c #6D7F71",
"R. c #5B823C",
"E. c #59834E",
"W. c #62834D",
"Q. c #628344",
"!. c #668255",
"~. c #698459",
"^. c #698756",
"/. c #72845D",
"(. c #6E8364",
"). c #6E816B",
"_. c #628564",
"`. c #748166",
"'. c #74836C",
"]. c #79836B",
"[. c #7A8A6D",
"{. c #778A65",
"}. c #6E8173",
"|. c #748473",
" X c #7A8674",
".X c #768972",
"XX c #7C8B74",
"oX c #74857A",
"OX c #7C8B7A",
"+X c #778979",
"@X c #7F907C",
"#X c #7B9271",
"$X c #828D7B",
"%X c #818E74",
"&X c #84937D",
"*X c #89957D",
"=X c #8A9B7D",
"-X c #829474",
";X c #7D9281",
":X c #838E81",
">X c #859382",
",X c #8A9684",
"<X c #8C9A84",
"1X c #8C9B8B",
"2X c #889787",
"3X c #919D8D",
"4X c #909E87",
"5X c #929E91",
"6X c #8F9D90",
"7X c #8FA188",
"8X c #93A28D",
"9X c #94A88B",
"0X c #8FA090",
"qX c #95A393",
"wX c #99A594",
"eX c #9AAC94",
"rX c #9AA699",
"tX c #9CAA9C",
"yX c #97A798",
"uX c #9AB194",
"iX c #9CB19B",
"pX c #A1AD9D",
"aX c #A0AE97",
"sX c #A4B29E",
"dX c #A6B99E",
"fX c #9DACA1",
"gX c #9FB1A4",
"hX c #A2AEA3",
"jX c #A4B2A5",
"kX c #A6B4AA",
"lX c #AAB7AC",
"zX c #AAB9AD",
"xX c #A8B8A7",
"cX c #ADBCB2",
"vX c #B1BEB4",
"bX c #B2BFAE",
"nX c #AEC5A9",
"mX c #AFC1B5",
"MX c #B2C1B6",
"NX c #B5C4BB",
"BX c #BACABF",
"VX c #B8C6BC",
"CX c #B4C2A9",
"ZX c #BCCBC4",
"AX c #B7C6C1",
"SX c #BFD0C6",
"DX c #C2CCC6",
"FX c #C2D0C5",
"GX c #C3D3CB",
"HX c #CAD6C8",
"JX c #C6D8D1",
"KX c #CCDAD3",
"LX c #C6D5D3",
"PX c #D3DDD6",
"IX c #D3E2DC",
"UX c #D6E5E0",
/* pixels */
"-X9XwX[.[.XX(.l.V.B.x.V.J.L.(.Z.V.H.c.c.x.x.k.s.t.f.A.*XsXbXFXIXIXIXIXKXJXBX&X`.S.B.C.S.B.C.C.A.].XXJ.U.P.9.W w 7 0 J O.] W B H ",
"zXVXxXxXwX[.[.J.V.V.Z.C.V.c.s.p.s.t.0.t.f.t.s.G..X2XpXNXDXGXKXJXGXGXFXxXxXxX<Xd.@.u.v.A.u.A.].%X%XM.D.z.G q F F 9 0 G } } 7 7 7 ",
"jXzXkX0X|.I.G.V.V.c.c.z.p.s.l.T.)..XOX|.@X0XmXSXGXZXmXjXgXfX;X(.(.'..X(.=X[.&X[.%X=XY.C.u.y.{.%Xw.q.9.] w.} o.F 5 F H W 7 < H A ",
"jXlX8X&X>XOXOX2X>X|.U.L.P.J.|.1XqXjXIXIXIXGXmXzXhX@X).XX&X8X7X@X&XXX[.(.`.[.-X4XaXCXdXS.v.b.S.r.9.X.G d.n.F ] J W } D 5 7 F Z 7 ",
"SXLXSXNXSXDXlXfXtX5X X6XyXrXkXBXBXNXmXjXkXtXiXtX[.s.l.x.c.(.J.Z.@XyXkXlXzXvXMXMXDXHXHXCX*XY.M.9.q.] +.w.F 5 F Y J q 5 5 5 < 6 , ",
"KXKXJXvXkXzXrX>X>X+XU.1XfXfXtX1X;X>X+X>X*XXXL.c.s.l.c.c.H.c.d.c..X2XyXlXVXvXvXVXHXPXKXxX=XU.{ [ W X.w.W 4 Z ( S B 5 5 4 6 Y Z 1 ",
"UXLXZXvXyXyXjXhXfX6XOXP.N.F.L. XOX.X'.L.V.c.2XfX1X;X1XyXtXgXfXjXgXiXfXjXMXVXvXcXvXDXvXtX$Xr.{ E W W J 5 4 ] [ A 5 q 5 4 7 D H L ",
"tXtXrX4XOXOX2X2X:X XP.P.U.L.L.P.L.K.K.K.K.>XcXfX0X;X;XyXgXzXmXVXVXMXcXlXcXvXcXkXkXlXvXwXa.G ] ] B w w 5 O G } D 4 8 q 8 & 4 S J ",
">XOXOX|.T.J.U.U.T.T.oX|.|.|.).'.'.U.K.V.H.K.H.c.D.;X1XyXfXgXgXgXfXyXyX2X1XlXvXvXjX3X,XU.{ w 0 q 5 5 q 4 5 J ( 5 4 o.} | 4 . 1 8 ",
"=X{.XXXX_.W.).~.}.).~..X!.J.L.L.U.[.|.L.J.V.D.K.}.oX;X|.}.oX|.+X;XqXfXyXjXbXvXtX5X1X$Xr.[ 0 , 4 0 D q , J O.J 4 0 ( a.o.8 , 5 +.",
"h.g.W.m.E.5.5.4.k.E.W.^.W.(.XXXX).J.J.D.D.K.H.H.D.H.K.T.|.+X2X4X3X9X0X8XwXwX4X4X3XOXb.[ q , 8 8 ( @.s i ] } w 4 5 1 5 4 5 8 O.w.",
"<.5.1.<.W.5.4.2.5.2.4.R.Q.!.~.XX:X}.+X+X}.}.).}.}.}.oX;X@X@X&X2X,X<X4X0XrXjXpX<XN.e.[ q , , A ..| ( A ] } J 5 & , 1 1 4 5 8 ( F ",
"=.3.:.%.:.:.2.:.-.;.:.3.<.f.h.k.H.W.^.#X X|. X|.}.T.T.}.oX+XXXXX&X&X&X8X8X4X Xw.{ { q , 4 8 ( | _ d ( [ F 5 5 & O 1 4 ; , O 4 q ",
"` %.%.:. .` ;.:.:.-. . .-.:.:.&.;.m.W.!.).U.|.P.H.H.K.K.U.U.|.'.].J.C.`.].2X6X] [ G , , A | _ ( A } ] w 5 8 5 O , , : ; O O & 5 ",
"Y T :.1.1.&.:.1.3.*.` %.%.%.-.:.4.~.I. X X|.U.U.T.U.T.P.J.P.U.C.M.a.0.o.o.{ [ { b.G 1 d D ( A w G q , , 5 7 d 7 7 8 8 8 s 7 @ & ",
"$.$.;.%.:.1.:.*.%.^ ^ %.` ^ -. .>.g.!.J.P.'.z.G.z.F.U.P.G.P.J.'.$Xz.] [ ] [ [ 9.{ w #.@.( 8 5 q 4 & 4 7 7 4 1 h g ( ' g D h g 8 ",
"&.%.$. . .+. ... .Y  .;.f.,.;. .n.+X$XG.U. XO.V.o.c.P.H.L.F.C.).U.l.w.a.a.a.u.#.0 q J F 5 4 , & & 8 ' ' ) ' 8 D ( D h A D h ' h ",
"_ D J _  .' _  . .-.`  .>.t.>.t.+.z.OXF.x.p.0.p.] F.N.0.t.z.t.O.] J G G ] ;.} d G F 8 5 5 : 7 g A 1 ' ` ' ) g h s 1 1 1 8 8 8 h ",
"Y `  . . . .>.O.O.O.>.t.f.V.B.G.0.V.I.p.X.~ p.X.o.x.O.~ ( ..>._ ` Y D D ( %.l ' u.O.A z.] 3 7 s 8 7 : Z A 1 @ 8 8 3 1 7 1 ; : 8 ",
"Z A Y ( s.V.(.'.[.-X-X{././.S.{.a.h.a.J c.+.p.E ~ Y Y ` %. . .%.;.;.-.......7.&.B.@...' 7 3 4 1 d h 7 ; 7 : 4 8 3 7 s s s 3 h h ",
".X(..X@X7XwXiXiXjXxX7X{.[.[.`.XXM.>.+.F z.W o.V S d P D '  .-.....;.;.' | ..<.7.<.' ( 8 d d d h h 8 8 3 3 : , ; 1 h c g g s 3 g ",
"uXuXuXuX9X7X7XyXtXkXuX>X,X*XOX.Xt.F 8 7 J i 8 S d d d d d d P D D ( ' | ' _ @.| ' h g 8 s 8 7 5 7 8 s s 3 ; * O s ) ' g n 3 : > ",
"nXnXdXuX&XZ.&XwXjXcXpX9X4X&XJ.~ Z < 3 d V 2 s s S 7 s 7 i Z 8 8 Z F 8 8 8 q ( 0 5 5 7 q 5 5 7 : 8 g s g g n 8 , e x 7 > d 8 h h ",
"xXxX0X{.A.c.[.qXjXzXtX8X&XZ.Y p S s 3 d d < 3 3 d W ] A ] ] } r.a.#.#.r.[ ] { ( q q w q w A 8 8 3 s s s g n z @ e O . O 7 7 d ( ",
"ZXNXjX>XJ.H.|.1XtXhX7X(.#Xx.Y Y ^ s < d t < : d W t.o.w.r.r.b.N.B.d.r.r.e.a.N.I.} B Z 7 8 8 4 , , 4 0 7 5 - $ e e %         5 _ ",
"zXmXNXcXzXcX6XyXlX1X&Xn.n.<...D f 7 < 2 : : : H o.a.} C.b.N.N.C.V.N.M.N.M.N.G.I.~ Z i W N.Z * & & & & * * + X + $ + o X o & + & ",
"zXmXMXNXtX>XOX#X0X-XB. .P Y D s 2 > : = = # < A } [ N.Y.I.I.C.S.I.U.Y.Y.U.N.C.6X'.p.] } p.0 & , , & o o & & 4 &   * o * 7 7 & & ",
"yXfX0XA.P ^ ^ P `  .L x P D P V u < # : : : : 3 q W M.o.b.N.C.C.I.Y. X$X$X,X3XrXOXp.} J 8 X.W 4 9 F W E 0 6 4 = o X X 7 <.o.q F ",
"s.(.s. .Y P S S S S P P Y J U B u u ; = # ; > 3 1 5 1 1 w r.C.$XrX5X:X$X,X5XhXfX Xp.e.V.V.J.x.F W o.+.W 4 5 & & & = 9 q.e.~ Q E ",
"S S P f S x L x x f V S g 3 N C - = : : < @ > r : 1 5 1 ; ( *XwXvXhX3X3X3X5XrX5X2XXX XG.G.V.z.X.J F 5 & = & * o X o & * & & 5 0 ",
"p L ^ I x v f x x x I d 7 4 N ! - = = # = @ r > > 1 1 , ; 8 b.3XrX,XqXrXkXkXqX,XOXC.0.( } X.~ J J J E B H 9 6 9 9 6 6 9 F 0 0 4 ",
"P ` j.%.I b c v k t t r D K u = = > # # # @ K = 2 : O O ; 5 8 ( | @.b.%XtXlXkXU.] A q 1 1 F p.a.z.z.a.0.y.t.p.p.l.G.|.p.6 - = 0 ",
"I ^ ^ U b b v y t y p p ! C u < > @ : : # ; r > t 1 @ ; ; 1 > e 1 s 8 ( b.%X5XY.V.} A A o.A } ] u.N.z.a.V.m.g.e.O.t.V.~ 6 i B H ",
"v L L x p z n t t r t p K C @ # 2 > : # : ; : e e > ; O ; 3 3 s > 1 1 h @.C.].Y.a.Z Z A O.J u.p.] ( J W _ H Y U V u V S A V i N ",
"b m M v v v k a t t t 7 u - # ; O : : @ ; @ > n s e ; @ : 3 > s s s ; 8 ( w.@.} B.J.a.L.'.:XG.z.p.H F 7 4 < s 7 4 V U V H V C V ",
"/ M z x p r p j k k j y e $ # @ @ @ @ @ @ @ > > > > ; @ : t y t > 1 1 8 D D ] O.XXwXhXxXjX8X).} W J F 8 9 5 5 s 7 u ^ ~ J S 4 r ",
"l l z k t a k a a a e r > $ # # @ @ ; @ @ ; > : ; : : ; 1 e y n 2 1 Z ] A d A } ] y.s.a.a.} _ } } a.w.A 8 7 5 s v i P Y B i < 2 ",
"k k a a a t y 2 > 2 f $ > $ $ $ @ @ @ : @ : > : ; : 1 1 3 t e y y : 1 H 8 5 q ( ..} s.a.c.C.x.l.G.d. Xv.,.t.%.D Y P  .J 9 4 < > ",
"k y r 2 e 2 r r $ $ > $ $ $ $ # # @ # 2 : $ s > : 1 1 3 3 > 2 r y > # 2 2 8 J O.v.I.wXjX3X>XOX<XqX6X6X%XU.G.M.[ F J W F 9 9 4 < ",
"r r r > = $ > e > $ # $ # # > > # : : > @ $ > > > s 3 1 : : : 2 r e # > d ( a.`.<X4XeXzXzXxXtXgXzXvXlXrX1X>X:XU.w.[ W R G R F F ",
"< > > > : : > # : # : $ # > > s g D i = 2 3 > 2 3 > > : : : : : < s i } n.x.S.>X&X`.*X8X8X2X{.x.a.>XzXkX5X2X:X+XU.G.q.9.q.[ F q ",
"2 2 2 2 r f > d ' | ( 3 h | | u.v.D s ( } d 6 s r 7 7 1 ; : , : 7 D | w.a.a.p.h.i.M.C.n.g.4.m *.XXB.&X&X,XqX,X:XOXP.q.[ { [ Q X.",
"> t Y Z @.a.f ,.u.u.@.@.@.@.v.@.d.O.@.y.P 7 s p d 7 d A d 7 7 A _ @.@.@.M.} ..;.I -.1./ m $.n.(.>Xm.z.z.G.pXyXyXqXwXU.b.e.e.e.e.",
"r > S v.a.a._ w.@.u.u.u.@.u.u.@.@.u.u.y.} ~ D Y p 2 3 < 8 D _ @.a.v.y.D w.' ' P $.$.x v x ' B.:.x I *.O.U.pXgXlXkXjX5X:X X XU.G.",
"f t D C.@.i.,.@.@.b.@.@.@.@.@.@.@.@.@.u.| ( _ Y 7 < ( O.@.b.v.v.v.u.~ d D A f v %.J x c p c v g L / z >.qXrXjXcXjXrXrXpXhXwX1X X",
"S ( i.v.@.b.b.@.@.u.@.i.,.@.@.@.@.@.u.,.} J ' | ..u.,.a.n.a.u.w...A Z d d d f f A f b v n x f c m b ;.&X1XzXlXlXzXlXlXrX3X1X$X$X",
"r i @.@.u.@.@.@.@...a.b.@.| | @.u.d.y.a.i.@.z.d.a.d.w.( @.@.} _ J d d d d Z i 4 i f x s s v c c b c B.S.y.V.lXAXZXvXcXtXqXtXwX$X",
"7 Z ' @.@.( _ @.O.( _ ..@.@.@.@.w.@.| ..a.a.w.@.| t.>.s 8 8 7 : 7 d d d d 8 7 < 4 > 1 1 d f f x c I } } +.y.0XzXmXAXvXvXcXpX7X{.",
"_ @.S d ~ u _ ,.@.@.@.@.@...( } | } 7 3 J A } O.V D 7 2 7 i s ; 4 S Z i 7 7 s 4 $ 7 A d 8 7 s 7 c f 8 A :.:.Q.=XmX*XZ.<X'.A.j.6.",
"p i p N u 2 U @...@.@...J 7 3 3 D d 1 s ~ s +. .d V 2 Z 7 f B 7 3 d d s : 1 t 6 6 d A d 2 1 > 3 e : i A ( h.9XVXSXSXcXtX&Xj.Q.=.",
"e V K L 2 < U ^ O.^ +.~ Z 2 4 t ~ S d D Z i Z S A p 2 J > 4 i d d f d 2 @ @ 3 s d S A 7 @ : 2 n # O d Z ( [.=X*X1XhXVXZX XA.V.0.",
"u 2 u 7 6 i u V V a 4 2 < 3 < 2 V i 7 f S < < s 2 = # # % $ 4 8 7 < : O O O O : s 2 ; ; O @ < s s < s H  .k.B.XXXX<X0X@X).C.] 0.",
"J S Z 6 7 u i 2 < = < & : 2 2 < r 7 < 2 < % < < # @ % % @ % # : 2 : @ @ O ; 7 1 H  .8 3 ; O : 3 d Z d A Z L :.{.eXzXhX6X*X$X(.U.",
"S D s < < 2 4 @ : < & : > 6 u = < : # @ @ # # @ # # % @ @ % @ @ : ; 1 : : 3 8 D O.O.7 O @ O : 1 7 Z A A d c $.7.W.zXDXvXNXbXlXpX",
"0.#.] ~ J 7 6 7 1 1 = = = 2 u # @ , @ @ @ @ @ @ % = @ O % # % : : , : , ; # : < 7 8 7 1 : 7 Z Y f s i : s b ' ) 3.eXLXNXMXMXzXaX",
"M.l.u.r.] Z F F F B < = < < = @ , : 1 : : < 1 , : : # 4 : : : @ ; : ; 4 7 : ; @ ; < 7 9 F W  .>.>.O.} >.,.h.A./.dXGXGXSXBXVXMXxX",
"C.d.w.o.J G G ( G q 8 5 J F 7 7 5 8 7 1 1 1 8 1 7 A A w J ] ] J ( G G G q q Z 7 1 R Q Q X.q.q.V.S.C.U.:X XI.G.Y.lXAXAXNXcXhXtX8X",
"%XC.w.| } ] [ o.( X.G A [ ( ( G ] ] ( G ( G G ( ] ] } Z 8 Z J } } G W J J ( G Z F 8.Q Q R Q R o.9.#.r.N.a.9.N.$XlXAXAXZXkX1X1X$X",
",X,X].C.a.O.| #.9.r.( W o.| [ w F ( E J [ { [ [ ] ] ] ] G B B E ~ V Z W W Q R w R E E E [ ] X.#.#.b.b.N.N.U.rXZXSXLXcXZXjX3X$X$X",
"$X].`.Y.M.r.@.9.e.r.w.9.#.[ [ [ G w A Q E w E ] ( Q R W W W ~ ~ Y U Y H B B R F G E A ( } | 0.o.O.r.a.z.G.:XhXAXZXLXzXvXhX,XI.C.",
"6X$XY.C.v.u.@.u.p.u.r.r.o.o.[ o.} X.X.[ Q J E W ] F w q B B F W } J ~ J J S W J J D | O.+.u.w.O.y.v.C.].,XwXlXvXvXvXwXwXlXqXY.b.",
"hXqX&XS.d.@.| @.O.O.#.o.[ [ ] ] J J W [ ] Q O.p.p.a.p.0.[ } X.9.9.w.9.o.o.} } ] _ t.).[.XX[.Z.M.C.I.'.].%X$X%X*XhXhXwX4XjX5XC.' ",
"aXpXrX,X].C.v.a.w...| } } } ( J ] } ~ ] } [ w.p.l.J.).L.V.N.F.N.z.p.w.y.q.O.u.d.H.>X0XqXfX0X1X X XXX].%X8X=XsXaXHXLXVXwXCXsX*X( ",
"DXvXxXwX*X`.V.n.M.a.z.O.} } ] ] W W ( ~ W } t.c.A.(.).'.|.J.J.P.J.V.z.,.p.V.XX>X2XyXyXfXgXtX1XU.G.V.v.S./.%XVXsXVXKXVXwXpXdX=Xu."
};
