/* XPM */
static char *_d973ba4670f499bee9b77440dc4159c[] = {
/* columns rows colors chars-per-pixel */
"64 64 244 2 ",
"   c #165F06",
".  c #126700",
"X  c #106E00",
"o  c #0F7C07",
"O  c #1A7505",
"+  c #127E07",
"@  c #1B7A04",
"#  c #177308",
"$  c #1C770C",
"%  c #127D0A",
"&  c #1D7C0B",
"*  c #24690E",
"=  c #3B670E",
"-  c #227D04",
";  c #23750B",
":  c #237C0C",
">  c #2A7D0E",
",  c #31740D",
"<  c #347D0D",
"1  c #286C15",
"2  c #2C7712",
"3  c #267E11",
"4  c #2C7E13",
"5  c #2B7418",
"6  c #2F7B19",
"7  c #3D7011",
"8  c #357B14",
"9  c #397B17",
"0  c #357E1A",
"q  c #3B7D19",
"w  c #417D1D",
"e  c #16810C",
"r  c #1D830D",
"t  c #168A0F",
"y  c #1F890B",
"u  c #1F900D",
"i  c #158310",
"p  c #1D8511",
"a  c #168D11",
"s  c #1E8B13",
"d  c #0E9515",
"f  c #1C9316",
"g  c #179911",
"h  c #1B9C15",
"j  c #1E9319",
"k  c #1E9B1D",
"l  c #218606",
"z  c #24820E",
"x  c #2A840D",
"c  c #25890D",
"v  c #2D8C0F",
"b  c #33850C",
"n  c #38810E",
"m  c #32890E",
"M  c #3B8B0F",
"N  c #248413",
"B  c #2B8413",
"V  c #258B14",
"C  c #2B8B14",
"Z  c #278619",
"A  c #2D8419",
"S  c #258D1A",
"D  c #2C8C1A",
"F  c #338514",
"G  c #3C8514",
"H  c #338C15",
"J  c #3A8D15",
"K  c #33851A",
"L  c #3B851C",
"P  c #348C1B",
"I  c #3B8C1B",
"U  c #249315",
"Y  c #2C9215",
"T  c #259914",
"R  c #2E9817",
"E  c #24931B",
"W  c #2C931B",
"Q  c #249B1C",
"!  c #2C9B1D",
"~  c #349215",
"^  c #3C9215",
"/  c #339A16",
"(  c #3D9817",
")  c #34931C",
"_  c #3B941C",
"`  c #349A1D",
"'  c #3B9B1D",
"]  c #24A21A",
"[  c #2DA21E",
"{  c #2CA91F",
"}  c #34A21E",
"|  c #3DA21E",
" . c #1F9D20",
".. c #2E8D21",
"X. c #358721",
"o. c #3F8721",
"O. c #358D21",
"+. c #3B8D21",
"@. c #2D9521",
"#. c #259E23",
"$. c #2C9C23",
"%. c #2F9B2A",
"&. c #349522",
"*. c #3B9422",
"=. c #349C23",
"-. c #3C9C24",
";. c #379529",
":. c #3D9429",
">. c #359D29",
",. c #3C9C2A",
"<. c #3B9D30",
"1. c #1DA122",
"2. c #25A123",
"3. c #2CA224",
"4. c #24AA23",
"5. c #2CAB23",
"6. c #26A429",
"7. c #2DA42B",
"8. c #23A92A",
"9. c #2DAB2B",
"0. c #33A324",
"q. c #3CA224",
"w. c #34AA25",
"e. c #39AA27",
"r. c #34A42B",
"t. c #3CA32B",
"y. c #34AA2B",
"u. c #3BAA2C",
"i. c #33B126",
"p. c #3DB32E",
"a. c #2DAB34",
"s. c #3CA531",
"d. c #34AB32",
"f. c #3CAB32",
"g. c #39A939",
"h. c #2EB233",
"j. c #35B332",
"k. c #3DB333",
"l. c #3AB934",
"z. c #3CBB3D",
"x. c #418616",
"c. c #438C15",
"v. c #4C8910",
"b. c #458618",
"n. c #428D1C",
"m. c #4B8E1C",
"M. c #439315",
"N. c #43941C",
"B. c #49941E",
"V. c #439A1D",
"C. c #4B9B1E",
"Z. c #54951F",
"A. c #49A01D",
"S. c #468222",
"D. c #448D22",
"F. c #4A8C20",
"G. c #418828",
"H. c #4C8C2A",
"J. c #51882D",
"K. c #429523",
"L. c #4B9524",
"P. c #439C24",
"I. c #4B9C24",
"U. c #449529",
"Y. c #4A942A",
"T. c #449C2A",
"R. c #4B9D2B",
"E. c #529625",
"W. c #529C23",
"Q. c #599A24",
"!. c #539C2A",
"~. c #5D9D2D",
"^. c #469B31",
"/. c #4C9C32",
"(. c #529A32",
"). c #649633",
"_. c #619A33",
"`. c #43A325",
"'. c #4BA225",
"]. c #43AA27",
"[. c #4CAC24",
"{. c #43A32B",
"}. c #4BA32B",
"|. c #43AA2C",
" X c #4BAA2D",
".X c #52A224",
"XX c #5AA225",
"oX c #53A927",
"OX c #58A926",
"+X c #53A42A",
"@X c #59A52B",
"#X c #53AA2C",
"$X c #5AAA2D",
"%X c #45B02F",
"&X c #4FB12E",
"*X c #54B124",
"=X c #58B729",
"-X c #42A532",
";X c #4BA431",
":X c #44AB32",
">X c #4CAC33",
",X c #44A638",
"<X c #4EA239",
"1X c #46AD39",
"2X c #4DAB3A",
"3X c #53A630",
"4X c #5BA333",
"5X c #53AD33",
"6X c #5AAB33",
"7X c #58A438",
"8X c #53AC3B",
"9X c #5BAC39",
"0X c #44B233",
"qX c #4BB234",
"wX c #45BC35",
"eX c #48B832",
"rX c #46B239",
"tX c #4BB43B",
"yX c #45BB39",
"uX c #4BBA3D",
"iX c #51B234",
"pX c #5BB333",
"aX c #53B43A",
"sX c #58B63E",
"dX c #52B839",
"fX c #5BB93B",
"gX c #62B22F",
"hX c #64A632",
"jX c #68AF35",
"kX c #6EAF39",
"lX c #63B439",
"zX c #6EB339",
"xX c #65BC39",
"cX c #6EB83D",
"vX c #72B53C",
"bX c #44C03C",
"nX c #5BC032",
"mX c #59AF44",
"MX c #44BB43",
"NX c #50B444",
"BX c #52B943",
"VX c #4BC244",
"CX c #55C147",
"ZX c #5CCD4A",
/* pixels */
"}.}.P.9X,.P > F K.*.C t.' | ' R `  Xq.) K.Y.;XJ ' ( ]./ Y `.( V.P.' `.V.' V.'.'.` ` | -.$.-XP {.}.`.0.u.w.:Xp.0.! ! 3.3.5.[ Q } ",
"^ I.}.*.,._ P K P -.q.-./ ` =.>XP.|.q.-.I J }.~ ( ' ]./ / V.M.V.V.~ V.N.^ .X'.'.q.=.|.t.V s.Z t.%X].e.0X:X0.f.y.0.7.y.Q 3.0.0.0.",
"c.B.J T.K.m T._ W E 0.` | / W {.) & s.=._ L.*.~ | V.P.C.^ '.OXC.C.V.W.N.M..X+Xv C R B =.! 0.#.%.q.' -.$.r.f 6.2.! E Q ! Q E ! Y ",
"< 9XP K.}.'.' -.r.$.=.R =.t.S $.A N =.t.`.( H >X`.~ H '.oXM.OX.XM.C.W.W..XC.N./ R q.H N >.3.#.#.:X) $.! #.#.8.8.E $.7.6.#.y.0.U ",
"*.}.R._ R.P.q.q.h #.s D W >.E $.&.P H ~ ' P.C qXq./ q.' oXV.M.gX'.+XN.I.L.C..X' -. X X`.q.` 0.$.r.U r.$.j k 8.1.2.2.k 8.h.h.E Q ",
": :.}.`.' }.:XW 3.Q s V ) S $.E =.,.-.' _ -.=.-.` %XqXq.P.M.M @XpX'.^ L.pX'.V.=X'.}.}.Y `.=.-.u.0Xr.%.E @.j 8.d 9.9.k 9.1.#.$.U ",
"x *.q.>XaX{.=.t.%.e z ,.W %.s.p W :XsX=.$.0.D {._ Y qXW ].~ V..X+Xm x #XW.C.@X'.V.I.( ' ~ ' `.|.` =.c V j 6.a. .3.3.s s f t.u.$.",
"P.T.iX%X%X! @.D >.W {.,X=.E t.S t.-Xt.t.rXu.V -X:XD t.@.t.>X6XV.I.b M L.M C..XC.C.M.I.V.N.M.( v Y {.0Xr.j %. .@.$.Y W ) D W -.|.",
"Y.B =.1XyXk.&.N & ..:.P %.! S ` W V =.{.s.%.0X&.:X>.-.` W 5XK.M.W.!.b H oXM.'.oXM..XW.V.!.oXV.P.-.q.%Xy.|.&.W C P ~ B A P F z _ ",
"H.; # tXVX0.=.&.S ;.) D =.$.W :X-.Y R W 0.t.t.=.t.|.|.K.H _ J I.$X.X#Xb A.V.#X' C.oXC.b ^ V.P.`.~ 0.t.:X-.z *.B I I F K > _ N.V.",
"^.K ;.,XW S ) D D Z ..;.` =.S V {.`.].~ q.u.0.`  X&X#XV.I.3X( ~ `..X#XB.c.M.V.' q.V.M.M b '.>X' R z ` ].) *.A z F I n.G P.C F {.",
":.<X<.,.*.W {.) D $ ,.-.` Y D =.t.| V./ ` q.t.-.`.#XH ~ L.' iX`.`.P.'.OX.X@XV.' `.'.A.C.' ` ].Y r Y W / ~ H - c H Y.< J *.J H =.",
"U.;X^.NX,.{.qX*.:.P K.B $.{.s.>.=.q.' | ].' ) K.'.' Y 0.t.q.iX].`.P.' M I.6X( iX].( '.( / e.$.U W r R '.( ~ `.q.- I _ R.z ) {.) ",
"3 :.Z @.t. X{.{.O.O.T.&.C W t.@.R | / `.' / P.~ ~  Xt.:Xq.eXeX| | fXP.m W.V.P. X' [.`.H } 3.9.f c ,.T._ V.^ V.].' ' J *._ ` {.&.",
"z D :.K.I.P.N.v &.@.t.>.V $.,.W ~ / %X|.l ' ' ) ( 3XK.; {.q./ w.w.eX-._ C.M. X_ M '.' / d.j.h.a.3.-X{._ V.I.K.J N.'.R.3XP.Y {.c ",
",.8X*.}.^ L.K.T.%.@.u.1XuXu.W D ` q.p.uXY >X>XY _ R.F.F.v tXu.T wXQ C _  X.XP.P.^ '.V.%X7.a.z.j.f.W A ( P.}.P.L.P.' {.`.' -.P.*.",
"K.K P J J N.K U.,Xr.N |.MXu.p &.>.f.u.3.E ,.:XP +.G n.N.) u.e.u i.i.c T.:X,.| V..XoXN.{.>.g.0X7.7.E ~ K.' I.V.N.' Y R 0.U =.K.H ",
"L L !.P.L.K.K.&...S =.].=.=.W ,.s.s.0.%.%.q.;.*.3XK.(.R.t.R e.0.i.0.{.P >.0X`.'.V.'.V.Y S s.,X].! 0.R ` H {.I M.}.R f d.7.{.P b ",
"L.B.N.}.3XK.F Y.:.) =.D Y `.t.=.t.) =.$.qX` v A K.N.*.H ! p.w.0X0X} {.*...s.*.N.'.A.' >X&.-.&X`./ T ] Q *.}.K.!.b {.r.d.E -X}.{.",
"B.c.F K.R.9X+.P I x & W H 5X,X X=.C ,.,.P.-.- *.I._ H H U e.f.0.} q.' P.V :X{.L.lXA.' ].V.x / ' } T { 0XC G K.R.J /.s.r.W &.U.*.",
"!.I R.R.I R.U.R.P _ t.D A /.H {.) ,._ {.{.,.) R.T.P ) ` R ` u.q./ ( [.P.C R {.'.V.$X'.P.I.M H '.| } k.#.D L.P.V.N.V.q.R V &.K D.",
"b.K.) @ P.K.*.:.z -.&...:.:.&.{.{.=.}.}.{.W ;.,._ *.@.$.:Xq.` ` | '.oX&X' / Y ~ '.#XJ J L..X#X#XV.`.%.i _ N.}._ '.'.} R / U.N.I ",
"^.+.=.Y ` _ P ,.W -.@...;.6 :X|.q.` _ }.P.&.^.&.P D @.%.=.W V ! } ].&XA.=.}.v `.'.+XJ M +X'.}.^ A.V E i T._ {./ ' `.} / H I b R.",
"z C u.%X].) c ) -.t.-X..A Z ;.e.` 0.Y ' T.;X*._ T.D &.;.D &.0.y.i.eX].%XP.P.H m I.3XK.P.'.$XK.I._ c t.1XP P P Y z R 0.e. X^ J K.",
"Y e.p.e.u.`.Y =.` -.,.A /.,.D 0.#.7.0.q.T.}.I.V.T.P *.F *.P.>X0Xu.dX{. X}.P.M ^ M..XV.^ R.J W.P.Y :Xf.W P ,.{.' Y |.r.uXaXP. Xq.",
"=.0.yXyXq.iX-.|.q./ *.,.U.D *.:XMXd.u.|.P.N.P.J R.R.K.}.P._ ) t.=.e.z R._ ( V.M.M.+X3XP.!.W._ T.*.;.0.>.P.P.-.W W t.f.0XP +XK.c ",
",.: <.-.' -.' P.`._ `.{.,.&.&.>.r.2.k.qX_ J F :.P.R.P.H {.' ` -.-.%X: C |.&X'.C.W.N.I.V.'.I.,.;XI.P.qX-./ W r.>.) Y -X-.V.L.P.I ",
"*._ &.;X*.'  X{.I.P.H q.D =.,.s.f.E %.:XK.N.F ^.I _ {.C _  XW ;.` >X;X;.{.q.pXC.W.M.^ }.`.`.T.}.I.M.P.-.P.` y.E P P.{.5XV.B.L.D.",
"R ` W u.`.| R =.c >.-.0.U E D @.yXs.W >X3X*.}.R.H b I H t.s.=.=.W }.T.R.x C _ M L.'.' ' ( 3XU.b I }.}.V.}.{.>.p @._ _ _ 4X< , H.",
"w.0.y.` ' `.q.qX` BX0.s $.f.D D :X0.W {.;X_ _  X}.P D A T.@.Z {.-.{.2Xv ) H P.b M ^ W Y v _ R.L J 3X^ P.( =.-.>.>.q.T..XC.L.F.(.",
"Q 3.y.$.&.K.` ` W =.t.p ! r.;.D _ Y %X|.{.=.J ' |.-.tXt.4 X.&.-Xt.{.{.P.iX#X+XN.M .X' Y ` H T.Y.L.D.K.*.` ` -.P / `.P.N.C.#X;XP.",
"f $.E >.D T.-.-.S ) C C ! s.{._ T.{.].|.Y D |.aXu.0XCX-Xz P {.tXq.R ' `.].N.+X@XM I./ v $.rX: K.G D.I ) t.q.-.=.} iXJ M.oX#XdXt.",
"<.) V ) N {.^.D -XD C C -.;.D K }.{.f.rX& =.qXZX1Xr.s.e Y 0.` q.P.x ' &XoXM.XXW.C.M V.v $.0.c P..XB.^.A ) t.B ) P ' J 6XOX.X| q.",
"F A P ,.,.V N D W P =.T.V ) U.{.{.&.s W N ` |.e.u.1X,.s.e.} 0.u.~ K.dX>XN.@X.XM.#XA.&Xl y.y.Y ~ V.^ ^ > ~ *.P.H P I I 6X$X#X].q.",
"N.J T.K.P K X.B P *.;.) t.W -.' -.Y E -.- 3X X` W *.+.K.t.f.y.E -X{.=.=.}.I.'.{.].'.].{ h l.u.=.+X+XK._ I Y.R._ > *.x _ oXA. Xq.",
"c.c.R.H 4 K.U.K P P.W r ` =.{.c `.` -.`.~ +X}.P.P *.n.P W $.$.$.t.;.E qXtX/ q.iX/ q.[ 5.k 5.E ) W `.].' @ _ I B P T.& Y ' N.&X-.",
"v.Z.!.Y.N.^.K.> K P ;.p E g.rX-.q.' P.}.3XI.P.P._ B Y.I./ } ! =.P.K.|.qX-X;.`.#X'.-.! Q s %.s.=.0.e.eX0.l ( P.P.*.&.P.*._ ~ P _ ",
"vXQ.8 E.Y.}.P.B J +.O.....%.1X,XR ' J _ }.x N.9XD.> R.`.| |.`.*._ ' %X:X) _ `.P.V.~ f.f.W <.-X@.s 3.5.T 0.-.=.*.V _ A P._ _ P ,.",
"jX!.b.n.N.I >X*.2 5 A ..S ..=.W =.P.{.^ P.^ I.P.I N._ V.-.>X_ P V.m ' ` 5X'.H P.A.|.u.1X` =.$.W r.6.a $.t.:Xs.&.W {.*.K.P P :Xs.",
"V.+XN.D.D.P ) P.(.L X.X Z Z _ -X{.P.;X}.{.`.'.' .XP.N.' / ) ) _ K.' '  XP.m ~ H `.q.e.E R / P :Xd.%.r.@.t.D S % W _ : I  X) W 7.",
"*.*.K.L.< I B :.I b +._ P D ;.' _ H _ ^ P.-.t.) }.I }.K.-.C D {.>X}.'.P.Y P.}.`.V.' 0.` W {.-.) @.@.<.N _ P...N V ) c I P.`.q.! ",
"X.P I.I.F P _ :.*.P H D D K P ) D *.K.^ *.{.-X&.P.I.' `.' / _ t.{.) C {.P.=.' e.~ | t.! u.t.R C @.N :.P P :.<.=.Y {.P._ V._ t.0X",
"K.J I K._ B *.{._ / H _ *.N V W N N P.*.' H ) ) ~ 8XV.'.P.^ `.q.f.f.f.t.;./ i.5.{ w.$.7.5.] u.-.&.2 B o.U.A D s.D =.K._ *._ X.<.",
"J +.T._ ) t.-.{.U ` ) =.&.D ,.&.*.P P b _ `.Y -._ _ P.P.V.}._ :XeX0XE W R R j.4.4.2.%.E g h y.V H K P K I ^.D ,X=.,.-.`.;XP X.4 ",
"L F *.=.=.-.P C u.eX) H N ,.:.: A 4 :.K.K._ D <._ *.P.I F I D W q.-.) N Y V y.j.9.j.S V 7.d.S & D _ H *.F O.S @.@.-.,._ _ T.P P ",
"> *.&.,.,.A P D p.yX=.P z P O.K *.K K :.*.& : C ~ '.F }.5X*.V >.`  XN.B P.{.! 6.r.s D V @.s &.W W q.C P ) C @.g.,.-.*.}.=.-.*.B ",
"Y tXt.D P ;X X` [ Q W P *.:.*.R.K K A ;.<.<.: :.}.( V.=.P.P W E ' V._ *.*.) 0.! V & >XC V C W W $.>.&.V ! Q =.u.u.` K L P.{.` W ",
"u.! D @._ *./ T p.U ..&.P _ _ :.+.A 3 N ;.,X&.K.K.P.,.C b V ! T %X( ~ R.P.Y 0.|.C A |._ J H *.r o p C W 0.[ t.V ` ,./.R.`. X{.q.",
"R t.W *.P.Y 0.j.z.9.#.%.# *.A B N ,X:XZ ;.<.:.b B K.-.-.{.' ! 0.` C A X.P %Xq.Y z {._ *.R.P.,.& $.D C ,.:Xf.) B P.*.R.K.P.I.`.~ ",
"Y W 3 +.F C r.s #.Q 6.%.=.O.3 A _ =.t.V D P I P.K.F *.D ,.V ` 0.f.=.K 3 _ {.u.R ' _ {.~ K.P *.*.{.v J P.W =.,.:.*.}.4 N..X( .XV.",
"$ ..A K +.K K # N =.% @.P.A ; K.}._ W ,.4 > K ^ J H K.T.I z U q.t.D B O.V V ` |.{.~ e.r.` K.P.U.P.I H I.K.K.*.A C :X*.F V.C.C.N.",
"U.<XA . +.+.o.<X&.D >.&.P *.*.U.I T.{.D O.F B *._ ,.K I _ -.&.-XW V O.D ;.W $.e._ *.u.y.` c _ K.}.{.!.N.I }.*.P W -.*.R.oX.XB.B.",
"7XK.:.A ~ +.K K.U.F D *.&.,.&.P _ -.@.@.O.# x {.=.D P 4 _ ` -.$.f 0.E _ I *.=.N A J R 3.} u ' ~ -.-.K.N.I.{.W $.0.` ;X(.L.B.L.Q.",
"G B *.&.P T.P F K.K.@.,XD $ D C P ) {.>XU.O.C R @.z P A {.C *.S h 5.0.*.: B :.B _ ,.` eXe.V ' |.|._ I.6XP.-.W V y.tX}.D.Y.W.E.M.",
"P :.T.P *.T.T.*.*.;X{.tX;.Z <.D _ ;X8XP.A *.;X&.W y D *.P A P s.6.d.s.V T.z c }.K.>X-.>X:X) / *.}.K..XN.P N _ V >.-XI L.!.M.I.I.",
"/.;XI R.P._ P.K F /.s.@.Z <.2X*.T._ ~ *.z P I C E S z ;.;.D N W t $.S N &.P.T.,.*.~ W V ,.) N =.;XR.L.'.B C 2X*.W *.L.E.@XR.I.'.",
"<X+./.P.}.'.K > H W r.@.N ,.;X,.-.' -.-.0.` C *.-XD & W @.V @.V =.W ..&.r.>.=.) ,.x W &.,.) t.t.K.!.W.Q.3X`.{.W *.P.n.4Xn.m.F I.",
"/././.P }.pXP.+.T.<.r.@.S D I {.*.K.' 0.e.Q *.:.T.@.E V D E E W W p N N @.S C ` W N &.t.&.;XBX<.J G !.W.lX5XaX&.*.W.G !.~.q 4X4X",
"H.(.:.D  XfX*.+.:.:.O.B A $ D 2XaX=.Y =.i.y.D A O.& Q 7.t Q U >.Z N S & ) ) P -.q.t.) ,.*.R.^.4 G F.$XOXhXC.pX}.I.M L.B.m.E.b.m.",
"(.Y.) -.iX+XP P P mXK.6 4 O.,.@.P.H V ! bX3.$ X.^.) @.$.Q $.S ) N ..<.;.A A D -.t.q.;.B K.K.L D.< +XpXA..XjX6XL.n L.B.B.W.L.E.E.",
"D.R.T.,.iX_ I +.I P *.F O.C E {.*./ W 0XE D G.0 L 4 O.$.j.E p &.^.+.X.;.K 0 U.;XrXf.*.K.K.n.L.J M..X=XoXgXzXhXE.x.L.n.R.n.^.+X' ",
";X,X-.*.T.4 5 L +.B K.K.{.q.` |.~ {.D @.*.^.L q L B z i 7.@.D X.A : :.K 4 /.K : 1X@.}.+X!.D.F.E.#XxXnX*XoXvXkXm._.L.!.K.I 4 -.[ ",
"u.dX>X>X<.,.5 * L +.L *./ ' =.}.`.sXU.K.(.9 G.G P P @.r i Z X.5 A 4 6 4 K U.L L >X~ 3XR.8 H.7 _.OX&X].tXfX#XzXhXb.L.T._ H ,.W %.",
"eX%X`.aX,X3   1 o.o.K R./ q.*.D ` >X:.0 S.w (.F _ ) ,.V ..O.6 0 O.N ; U.*.I Y.!.P K.I.Y.H.J.= ).+X#Xt.qX XlXvX~.< n.b ) T.) r W "
};
